<?xml version="1.0" encoding="utf-8" standalone="no"?>
<!DOCTYPE svg PUBLIC "-//W3C//DTD SVG 1.1//EN"
  "http://www.w3.org/Graphics/SVG/1.1/DTD/svg11.dtd">
<svg xmlns:xlink="http://www.w3.org/1999/xlink" width="414.127187pt" height="331.389812pt" viewBox="0 0 414.127187 331.389812" xmlns="http://www.w3.org/2000/svg" version="1.1">
 <metadata>
  <rdf:RDF xmlns:dc="http://purl.org/dc/elements/1.1/" xmlns:cc="http://creativecommons.org/ns#" xmlns:rdf="http://www.w3.org/1999/02/22-rdf-syntax-ns#">
   <cc:Work>
    <dc:type rdf:resource="http://purl.org/dc/dcmitype/StillImage"/>
    <dc:date>2026-01-25T08:48:26.358099</dc:date>
    <dc:format>image/svg+xml</dc:format>
    <dc:creator>
     <cc:Agent>
      <dc:title>Matplotlib v3.8.4, https://matplotlib.org/</dc:title>
     </cc:Agent>
    </dc:creator>
   </cc:Work>
  </rdf:RDF>
 </metadata>
 <defs>
  <style type="text/css">*{stroke-linejoin: round; stroke-linecap: butt}</style>
 </defs>
 <g id="figure_1">
  <g id="patch_1">
   <path d="M 0 331.389812 
L 414.127187 331.389812 
L 414.127187 0 
L 0 0 
z
" style="fill: #ffffff"/>
  </g>
  <g id="axes_1">
   <g id="patch_2">
    <path d="M 49.807187 288.430125 
L 406.927188 288.430125 
L 406.927188 22.318125 
L 49.807187 22.318125 
z
" style="fill: #ffffff"/>
   </g>
   <g id="matplotlib.axis_1">
    <g id="xtick_1">
     <g id="line2d_1">
      <path d="M 66.039915 288.430125 
L 66.039915 22.318125 
" clip-path="url(#pd124b26497)" style="fill: none; stroke: #cccccc; stroke-linecap: round"/>
     </g>
     <g id="text_1">
      <!-- 0 -->
      <g style="fill: #262626" transform="translate(62.54054 306.288406) scale(0.11 -0.11)">
       <defs>
        <path id="DejaVuSans-30" d="M 2034 4250 
Q 1547 4250 1301 3770 
Q 1056 3291 1056 2328 
Q 1056 1369 1301 889 
Q 1547 409 2034 409 
Q 2525 409 2770 889 
Q 3016 1369 3016 2328 
Q 3016 3291 2770 3770 
Q 2525 4250 2034 4250 
z
M 2034 4750 
Q 2819 4750 3233 4129 
Q 3647 3509 3647 2328 
Q 3647 1150 3233 529 
Q 2819 -91 2034 -91 
Q 1250 -91 836 529 
Q 422 1150 422 2328 
Q 422 3509 836 4129 
Q 1250 4750 2034 4750 
z
" transform="scale(0.015625)"/>
       </defs>
       <use xlink:href="#DejaVuSans-30"/>
      </g>
     </g>
    </g>
    <g id="xtick_2">
     <g id="line2d_2">
      <path d="M 139.529303 288.430125 
L 139.529303 22.318125 
" clip-path="url(#pd124b26497)" style="fill: none; stroke: #cccccc; stroke-linecap: round"/>
     </g>
     <g id="text_2">
      <!-- 5 -->
      <g style="fill: #262626" transform="translate(136.029928 306.288406) scale(0.11 -0.11)">
       <defs>
        <path id="DejaVuSans-35" d="M 691 4666 
L 3169 4666 
L 3169 4134 
L 1269 4134 
L 1269 2991 
Q 1406 3038 1543 3061 
Q 1681 3084 1819 3084 
Q 2600 3084 3056 2656 
Q 3513 2228 3513 1497 
Q 3513 744 3044 326 
Q 2575 -91 1722 -91 
Q 1428 -91 1123 -41 
Q 819 9 494 109 
L 494 744 
Q 775 591 1075 516 
Q 1375 441 1709 441 
Q 2250 441 2565 725 
Q 2881 1009 2881 1497 
Q 2881 1984 2565 2268 
Q 2250 2553 1709 2553 
Q 1456 2553 1204 2497 
Q 953 2441 691 2322 
L 691 4666 
z
" transform="scale(0.015625)"/>
       </defs>
       <use xlink:href="#DejaVuSans-35"/>
      </g>
     </g>
    </g>
    <g id="xtick_3">
     <g id="line2d_3">
      <path d="M 213.018692 288.430125 
L 213.018692 22.318125 
" clip-path="url(#pd124b26497)" style="fill: none; stroke: #cccccc; stroke-linecap: round"/>
     </g>
     <g id="text_3">
      <!-- 10 -->
      <g style="fill: #262626" transform="translate(206.019942 306.288406) scale(0.11 -0.11)">
       <defs>
        <path id="DejaVuSans-31" d="M 794 531 
L 1825 531 
L 1825 4091 
L 703 3866 
L 703 4441 
L 1819 4666 
L 2450 4666 
L 2450 531 
L 3481 531 
L 3481 0 
L 794 0 
L 794 531 
z
" transform="scale(0.015625)"/>
       </defs>
       <use xlink:href="#DejaVuSans-31"/>
       <use xlink:href="#DejaVuSans-30" x="63.623047"/>
      </g>
     </g>
    </g>
    <g id="xtick_4">
     <g id="line2d_4">
      <path d="M 286.50808 288.430125 
L 286.50808 22.318125 
" clip-path="url(#pd124b26497)" style="fill: none; stroke: #cccccc; stroke-linecap: round"/>
     </g>
     <g id="text_4">
      <!-- 15 -->
      <g style="fill: #262626" transform="translate(279.50933 306.288406) scale(0.11 -0.11)">
       <use xlink:href="#DejaVuSans-31"/>
       <use xlink:href="#DejaVuSans-35" x="63.623047"/>
      </g>
     </g>
    </g>
    <g id="xtick_5">
     <g id="line2d_5">
      <path d="M 359.997469 288.430125 
L 359.997469 22.318125 
" clip-path="url(#pd124b26497)" style="fill: none; stroke: #cccccc; stroke-linecap: round"/>
     </g>
     <g id="text_5">
      <!-- 20 -->
      <g style="fill: #262626" transform="translate(352.998719 306.288406) scale(0.11 -0.11)">
       <defs>
        <path id="DejaVuSans-32" d="M 1228 531 
L 3431 531 
L 3431 0 
L 469 0 
L 469 531 
Q 828 903 1448 1529 
Q 2069 2156 2228 2338 
Q 2531 2678 2651 2914 
Q 2772 3150 2772 3378 
Q 2772 3750 2511 3984 
Q 2250 4219 1831 4219 
Q 1534 4219 1204 4116 
Q 875 4013 500 3803 
L 500 4441 
Q 881 4594 1212 4672 
Q 1544 4750 1819 4750 
Q 2544 4750 2975 4387 
Q 3406 4025 3406 3419 
Q 3406 3131 3298 2873 
Q 3191 2616 2906 2266 
Q 2828 2175 2409 1742 
Q 1991 1309 1228 531 
z
" transform="scale(0.015625)"/>
       </defs>
       <use xlink:href="#DejaVuSans-32"/>
       <use xlink:href="#DejaVuSans-30" x="63.623047"/>
      </g>
     </g>
    </g>
    <g id="text_6">
     <!-- Wall-clock time since run start (minutes) -->
     <g style="fill: #262626" transform="translate(106.542813 321.694187) scale(0.12 -0.12)">
      <defs>
       <path id="DejaVuSans-57" d="M 213 4666 
L 850 4666 
L 1831 722 
L 2809 4666 
L 3519 4666 
L 4500 722 
L 5478 4666 
L 6119 4666 
L 4947 0 
L 4153 0 
L 3169 4050 
L 2175 0 
L 1381 0 
L 213 4666 
z
" transform="scale(0.015625)"/>
       <path id="DejaVuSans-61" d="M 2194 1759 
Q 1497 1759 1228 1600 
Q 959 1441 959 1056 
Q 959 750 1161 570 
Q 1363 391 1709 391 
Q 2188 391 2477 730 
Q 2766 1069 2766 1631 
L 2766 1759 
L 2194 1759 
z
M 3341 1997 
L 3341 0 
L 2766 0 
L 2766 531 
Q 2569 213 2275 61 
Q 1981 -91 1556 -91 
Q 1019 -91 701 211 
Q 384 513 384 1019 
Q 384 1609 779 1909 
Q 1175 2209 1959 2209 
L 2766 2209 
L 2766 2266 
Q 2766 2663 2505 2880 
Q 2244 3097 1772 3097 
Q 1472 3097 1187 3025 
Q 903 2953 641 2809 
L 641 3341 
Q 956 3463 1253 3523 
Q 1550 3584 1831 3584 
Q 2591 3584 2966 3190 
Q 3341 2797 3341 1997 
z
" transform="scale(0.015625)"/>
       <path id="DejaVuSans-6c" d="M 603 4863 
L 1178 4863 
L 1178 0 
L 603 0 
L 603 4863 
z
" transform="scale(0.015625)"/>
       <path id="DejaVuSans-2d" d="M 313 2009 
L 1997 2009 
L 1997 1497 
L 313 1497 
L 313 2009 
z
" transform="scale(0.015625)"/>
       <path id="DejaVuSans-63" d="M 3122 3366 
L 3122 2828 
Q 2878 2963 2633 3030 
Q 2388 3097 2138 3097 
Q 1578 3097 1268 2742 
Q 959 2388 959 1747 
Q 959 1106 1268 751 
Q 1578 397 2138 397 
Q 2388 397 2633 464 
Q 2878 531 3122 666 
L 3122 134 
Q 2881 22 2623 -34 
Q 2366 -91 2075 -91 
Q 1284 -91 818 406 
Q 353 903 353 1747 
Q 353 2603 823 3093 
Q 1294 3584 2113 3584 
Q 2378 3584 2631 3529 
Q 2884 3475 3122 3366 
z
" transform="scale(0.015625)"/>
       <path id="DejaVuSans-6f" d="M 1959 3097 
Q 1497 3097 1228 2736 
Q 959 2375 959 1747 
Q 959 1119 1226 758 
Q 1494 397 1959 397 
Q 2419 397 2687 759 
Q 2956 1122 2956 1747 
Q 2956 2369 2687 2733 
Q 2419 3097 1959 3097 
z
M 1959 3584 
Q 2709 3584 3137 3096 
Q 3566 2609 3566 1747 
Q 3566 888 3137 398 
Q 2709 -91 1959 -91 
Q 1206 -91 779 398 
Q 353 888 353 1747 
Q 353 2609 779 3096 
Q 1206 3584 1959 3584 
z
" transform="scale(0.015625)"/>
       <path id="DejaVuSans-6b" d="M 581 4863 
L 1159 4863 
L 1159 1991 
L 2875 3500 
L 3609 3500 
L 1753 1863 
L 3688 0 
L 2938 0 
L 1159 1709 
L 1159 0 
L 581 0 
L 581 4863 
z
" transform="scale(0.015625)"/>
       <path id="DejaVuSans-20" transform="scale(0.015625)"/>
       <path id="DejaVuSans-74" d="M 1172 4494 
L 1172 3500 
L 2356 3500 
L 2356 3053 
L 1172 3053 
L 1172 1153 
Q 1172 725 1289 603 
Q 1406 481 1766 481 
L 2356 481 
L 2356 0 
L 1766 0 
Q 1100 0 847 248 
Q 594 497 594 1153 
L 594 3053 
L 172 3053 
L 172 3500 
L 594 3500 
L 594 4494 
L 1172 4494 
z
" transform="scale(0.015625)"/>
       <path id="DejaVuSans-69" d="M 603 3500 
L 1178 3500 
L 1178 0 
L 603 0 
L 603 3500 
z
M 603 4863 
L 1178 4863 
L 1178 4134 
L 603 4134 
L 603 4863 
z
" transform="scale(0.015625)"/>
       <path id="DejaVuSans-6d" d="M 3328 2828 
Q 3544 3216 3844 3400 
Q 4144 3584 4550 3584 
Q 5097 3584 5394 3201 
Q 5691 2819 5691 2113 
L 5691 0 
L 5113 0 
L 5113 2094 
Q 5113 2597 4934 2840 
Q 4756 3084 4391 3084 
Q 3944 3084 3684 2787 
Q 3425 2491 3425 1978 
L 3425 0 
L 2847 0 
L 2847 2094 
Q 2847 2600 2669 2842 
Q 2491 3084 2119 3084 
Q 1678 3084 1418 2786 
Q 1159 2488 1159 1978 
L 1159 0 
L 581 0 
L 581 3500 
L 1159 3500 
L 1159 2956 
Q 1356 3278 1631 3431 
Q 1906 3584 2284 3584 
Q 2666 3584 2933 3390 
Q 3200 3197 3328 2828 
z
" transform="scale(0.015625)"/>
       <path id="DejaVuSans-65" d="M 3597 1894 
L 3597 1613 
L 953 1613 
Q 991 1019 1311 708 
Q 1631 397 2203 397 
Q 2534 397 2845 478 
Q 3156 559 3463 722 
L 3463 178 
Q 3153 47 2828 -22 
Q 2503 -91 2169 -91 
Q 1331 -91 842 396 
Q 353 884 353 1716 
Q 353 2575 817 3079 
Q 1281 3584 2069 3584 
Q 2775 3584 3186 3129 
Q 3597 2675 3597 1894 
z
M 3022 2063 
Q 3016 2534 2758 2815 
Q 2500 3097 2075 3097 
Q 1594 3097 1305 2825 
Q 1016 2553 972 2059 
L 3022 2063 
z
" transform="scale(0.015625)"/>
       <path id="DejaVuSans-73" d="M 2834 3397 
L 2834 2853 
Q 2591 2978 2328 3040 
Q 2066 3103 1784 3103 
Q 1356 3103 1142 2972 
Q 928 2841 928 2578 
Q 928 2378 1081 2264 
Q 1234 2150 1697 2047 
L 1894 2003 
Q 2506 1872 2764 1633 
Q 3022 1394 3022 966 
Q 3022 478 2636 193 
Q 2250 -91 1575 -91 
Q 1294 -91 989 -36 
Q 684 19 347 128 
L 347 722 
Q 666 556 975 473 
Q 1284 391 1588 391 
Q 1994 391 2212 530 
Q 2431 669 2431 922 
Q 2431 1156 2273 1281 
Q 2116 1406 1581 1522 
L 1381 1569 
Q 847 1681 609 1914 
Q 372 2147 372 2553 
Q 372 3047 722 3315 
Q 1072 3584 1716 3584 
Q 2034 3584 2315 3537 
Q 2597 3491 2834 3397 
z
" transform="scale(0.015625)"/>
       <path id="DejaVuSans-6e" d="M 3513 2113 
L 3513 0 
L 2938 0 
L 2938 2094 
Q 2938 2591 2744 2837 
Q 2550 3084 2163 3084 
Q 1697 3084 1428 2787 
Q 1159 2491 1159 1978 
L 1159 0 
L 581 0 
L 581 3500 
L 1159 3500 
L 1159 2956 
Q 1366 3272 1645 3428 
Q 1925 3584 2291 3584 
Q 2894 3584 3203 3211 
Q 3513 2838 3513 2113 
z
" transform="scale(0.015625)"/>
       <path id="DejaVuSans-72" d="M 2631 2963 
Q 2534 3019 2420 3045 
Q 2306 3072 2169 3072 
Q 1681 3072 1420 2755 
Q 1159 2438 1159 1844 
L 1159 0 
L 581 0 
L 581 3500 
L 1159 3500 
L 1159 2956 
Q 1341 3275 1631 3429 
Q 1922 3584 2338 3584 
Q 2397 3584 2469 3576 
Q 2541 3569 2628 3553 
L 2631 2963 
z
" transform="scale(0.015625)"/>
       <path id="DejaVuSans-75" d="M 544 1381 
L 544 3500 
L 1119 3500 
L 1119 1403 
Q 1119 906 1312 657 
Q 1506 409 1894 409 
Q 2359 409 2629 706 
Q 2900 1003 2900 1516 
L 2900 3500 
L 3475 3500 
L 3475 0 
L 2900 0 
L 2900 538 
Q 2691 219 2414 64 
Q 2138 -91 1772 -91 
Q 1169 -91 856 284 
Q 544 659 544 1381 
z
M 1991 3584 
L 1991 3584 
z
" transform="scale(0.015625)"/>
       <path id="DejaVuSans-28" d="M 1984 4856 
Q 1566 4138 1362 3434 
Q 1159 2731 1159 2009 
Q 1159 1288 1364 580 
Q 1569 -128 1984 -844 
L 1484 -844 
Q 1016 -109 783 600 
Q 550 1309 550 2009 
Q 550 2706 781 3412 
Q 1013 4119 1484 4856 
L 1984 4856 
z
" transform="scale(0.015625)"/>
       <path id="DejaVuSans-29" d="M 513 4856 
L 1013 4856 
Q 1481 4119 1714 3412 
Q 1947 2706 1947 2009 
Q 1947 1309 1714 600 
Q 1481 -109 1013 -844 
L 513 -844 
Q 928 -128 1133 580 
Q 1338 1288 1338 2009 
Q 1338 2731 1133 3434 
Q 928 4138 513 4856 
z
" transform="scale(0.015625)"/>
      </defs>
      <use xlink:href="#DejaVuSans-57"/>
      <use xlink:href="#DejaVuSans-61" x="92.501953"/>
      <use xlink:href="#DejaVuSans-6c" x="153.78125"/>
      <use xlink:href="#DejaVuSans-6c" x="181.564453"/>
      <use xlink:href="#DejaVuSans-2d" x="209.347656"/>
      <use xlink:href="#DejaVuSans-63" x="245.431641"/>
      <use xlink:href="#DejaVuSans-6c" x="300.412109"/>
      <use xlink:href="#DejaVuSans-6f" x="328.195312"/>
      <use xlink:href="#DejaVuSans-63" x="389.376953"/>
      <use xlink:href="#DejaVuSans-6b" x="444.357422"/>
      <use xlink:href="#DejaVuSans-20" x="502.267578"/>
      <use xlink:href="#DejaVuSans-74" x="534.054688"/>
      <use xlink:href="#DejaVuSans-69" x="573.263672"/>
      <use xlink:href="#DejaVuSans-6d" x="601.046875"/>
      <use xlink:href="#DejaVuSans-65" x="698.458984"/>
      <use xlink:href="#DejaVuSans-20" x="759.982422"/>
      <use xlink:href="#DejaVuSans-73" x="791.769531"/>
      <use xlink:href="#DejaVuSans-69" x="843.869141"/>
      <use xlink:href="#DejaVuSans-6e" x="871.652344"/>
      <use xlink:href="#DejaVuSans-63" x="935.03125"/>
      <use xlink:href="#DejaVuSans-65" x="990.011719"/>
      <use xlink:href="#DejaVuSans-20" x="1051.535156"/>
      <use xlink:href="#DejaVuSans-72" x="1083.322266"/>
      <use xlink:href="#DejaVuSans-75" x="1124.435547"/>
      <use xlink:href="#DejaVuSans-6e" x="1187.814453"/>
      <use xlink:href="#DejaVuSans-20" x="1251.193359"/>
      <use xlink:href="#DejaVuSans-73" x="1282.980469"/>
      <use xlink:href="#DejaVuSans-74" x="1335.080078"/>
      <use xlink:href="#DejaVuSans-61" x="1374.289062"/>
      <use xlink:href="#DejaVuSans-72" x="1435.568359"/>
      <use xlink:href="#DejaVuSans-74" x="1476.681641"/>
      <use xlink:href="#DejaVuSans-20" x="1515.890625"/>
      <use xlink:href="#DejaVuSans-28" x="1547.677734"/>
      <use xlink:href="#DejaVuSans-6d" x="1586.691406"/>
      <use xlink:href="#DejaVuSans-69" x="1684.103516"/>
      <use xlink:href="#DejaVuSans-6e" x="1711.886719"/>
      <use xlink:href="#DejaVuSans-75" x="1775.265625"/>
      <use xlink:href="#DejaVuSans-74" x="1838.644531"/>
      <use xlink:href="#DejaVuSans-65" x="1877.853516"/>
      <use xlink:href="#DejaVuSans-73" x="1939.376953"/>
      <use xlink:href="#DejaVuSans-29" x="1991.476562"/>
     </g>
    </g>
   </g>
   <g id="matplotlib.axis_2">
    <g id="ytick_1">
     <g id="line2d_6">
      <path d="M 49.807187 276.342203 
L 406.927188 276.342203 
" clip-path="url(#pd124b26497)" style="fill: none; stroke: #cccccc; stroke-linecap: round"/>
     </g>
     <g id="text_7">
      <!-- 0.0 -->
      <g style="fill: #262626" transform="translate(22.81375 280.521343) scale(0.11 -0.11)">
       <defs>
        <path id="DejaVuSans-2e" d="M 684 794 
L 1344 794 
L 1344 0 
L 684 0 
L 684 794 
z
" transform="scale(0.015625)"/>
       </defs>
       <use xlink:href="#DejaVuSans-30"/>
       <use xlink:href="#DejaVuSans-2e" x="63.623047"/>
       <use xlink:href="#DejaVuSans-30" x="95.410156"/>
      </g>
     </g>
    </g>
    <g id="ytick_2">
     <g id="line2d_7">
      <path d="M 49.807187 228.980403 
L 406.927188 228.980403 
" clip-path="url(#pd124b26497)" style="fill: none; stroke: #cccccc; stroke-linecap: round"/>
     </g>
     <g id="text_8">
      <!-- 0.5 -->
      <g style="fill: #262626" transform="translate(22.81375 233.159543) scale(0.11 -0.11)">
       <use xlink:href="#DejaVuSans-30"/>
       <use xlink:href="#DejaVuSans-2e" x="63.623047"/>
       <use xlink:href="#DejaVuSans-35" x="95.410156"/>
      </g>
     </g>
    </g>
    <g id="ytick_3">
     <g id="line2d_8">
      <path d="M 49.807187 181.618602 
L 406.927188 181.618602 
" clip-path="url(#pd124b26497)" style="fill: none; stroke: #cccccc; stroke-linecap: round"/>
     </g>
     <g id="text_9">
      <!-- 1.0 -->
      <g style="fill: #262626" transform="translate(22.81375 185.797743) scale(0.11 -0.11)">
       <use xlink:href="#DejaVuSans-31"/>
       <use xlink:href="#DejaVuSans-2e" x="63.623047"/>
       <use xlink:href="#DejaVuSans-30" x="95.410156"/>
      </g>
     </g>
    </g>
    <g id="ytick_4">
     <g id="line2d_9">
      <path d="M 49.807187 134.256802 
L 406.927188 134.256802 
" clip-path="url(#pd124b26497)" style="fill: none; stroke: #cccccc; stroke-linecap: round"/>
     </g>
     <g id="text_10">
      <!-- 1.5 -->
      <g style="fill: #262626" transform="translate(22.81375 138.435943) scale(0.11 -0.11)">
       <use xlink:href="#DejaVuSans-31"/>
       <use xlink:href="#DejaVuSans-2e" x="63.623047"/>
       <use xlink:href="#DejaVuSans-35" x="95.410156"/>
      </g>
     </g>
    </g>
    <g id="ytick_5">
     <g id="line2d_10">
      <path d="M 49.807187 86.895002 
L 406.927188 86.895002 
" clip-path="url(#pd124b26497)" style="fill: none; stroke: #cccccc; stroke-linecap: round"/>
     </g>
     <g id="text_11">
      <!-- 2.0 -->
      <g style="fill: #262626" transform="translate(22.81375 91.074142) scale(0.11 -0.11)">
       <use xlink:href="#DejaVuSans-32"/>
       <use xlink:href="#DejaVuSans-2e" x="63.623047"/>
       <use xlink:href="#DejaVuSans-30" x="95.410156"/>
      </g>
     </g>
    </g>
    <g id="ytick_6">
     <g id="line2d_11">
      <path d="M 49.807187 39.533201 
L 406.927188 39.533201 
" clip-path="url(#pd124b26497)" style="fill: none; stroke: #cccccc; stroke-linecap: round"/>
     </g>
     <g id="text_12">
      <!-- 2.5 -->
      <g style="fill: #262626" transform="translate(22.81375 43.712342) scale(0.11 -0.11)">
       <use xlink:href="#DejaVuSans-32"/>
       <use xlink:href="#DejaVuSans-2e" x="63.623047"/>
       <use xlink:href="#DejaVuSans-35" x="95.410156"/>
      </g>
     </g>
    </g>
    <g id="text_13">
     <!-- train/loss -->
     <g style="fill: #262626" transform="translate(16.318125 182.94975) rotate(-90) scale(0.12 -0.12)">
      <defs>
       <path id="DejaVuSans-2f" d="M 1625 4666 
L 2156 4666 
L 531 -594 
L 0 -594 
L 1625 4666 
z
" transform="scale(0.015625)"/>
      </defs>
      <use xlink:href="#DejaVuSans-74"/>
      <use xlink:href="#DejaVuSans-72" x="39.208984"/>
      <use xlink:href="#DejaVuSans-61" x="80.322266"/>
      <use xlink:href="#DejaVuSans-69" x="141.601562"/>
      <use xlink:href="#DejaVuSans-6e" x="169.384766"/>
      <use xlink:href="#DejaVuSans-2f" x="232.763672"/>
      <use xlink:href="#DejaVuSans-6c" x="266.455078"/>
      <use xlink:href="#DejaVuSans-6f" x="294.238281"/>
      <use xlink:href="#DejaVuSans-73" x="355.419922"/>
      <use xlink:href="#DejaVuSans-73" x="407.519531"/>
     </g>
    </g>
   </g>
   <g id="line2d_12">
    <path d="M 66.039915 34.414125 
L 67.727695 111.895454 
L 69.263001 132.503325 
L 70.970951 148.196514 
L 74.322938 175.261437 
L 76.059836 184.863526 
L 77.89629 191.763176 
L 79.613744 199.255038 
L 81.213214 204.76011 
L 82.783089 209.742242 
L 85.969794 217.881058 
L 87.596854 222.788313 
L 89.307131 226.172609 
L 90.92021 229.937856 
L 92.684997 233.470787 
L 97.595802 240.694897 
L 99.084907 242.287715 
L 100.841057 243.609455 
L 104.067479 247.945751 
L 105.574061 249.304568 
L 107.148949 251.383066 
L 108.71467 252.424188 
L 110.21737 253.832658 
L 111.948339 254.533346 
L 113.69465 255.580479 
L 115.357799 256.853134 
L 118.568022 258.400345 
L 120.237094 259.571843 
L 121.935314 259.730199 
L 123.527852 261.385107 
L 125.14849 261.765941 
L 126.92346 262.577094 
L 128.618463 263.129103 
L 130.270408 264.478184 
L 131.941189 264.23881 
L 133.469877 264.268551 
L 135.022427 265.353066 
L 136.769108 265.218866 
L 138.423199 266.93221 
L 139.92891 267.036064 
L 141.487226 267.468682 
L 143.080975 267.032786 
L 146.113638 268.559086 
L 149.310224 269.064154 
L 150.818475 268.969085 
L 152.398136 269.507046 
L 153.889317 269.268648 
L 155.36311 269.917771 
L 157.059077 270.100554 
L 158.541403 270.076263 
L 160.018768 269.679804 
L 161.609857 270.732942 
L 163.14818 270.741516 
L 164.731531 271.254249 
L 166.53834 271.284722 
L 168.143461 271.570603 
L 171.259065 271.022143 
L 174.228644 271.711881 
L 177.314359 271.533153 
L 179.129247 271.811287 
L 180.677359 272.314238 
L 182.230868 272.637642 
L 183.712011 272.44407 
L 185.145703 272.724994 
L 186.735146 271.95649 
L 188.203852 272.469803 
L 189.719759 272.844538 
L 191.24744 272.309635 
L 192.850366 272.314847 
L 194.386268 274.298802 
L 195.95567 275.350831 
L 199.320089 275.669688 
L 207.469067 275.909093 
L 237.467463 276.135867 
L 268.968795 276.173782 
L 276.78295 276.20153 
L 287.76475 276.197098 
L 307.897082 276.21073 
L 319.13078 276.199079 
L 319.13078 276.199079 
" clip-path="url(#pd124b26497)" style="fill: none; stroke: #4c72b0; stroke-width: 1.5; stroke-linecap: round"/>
   </g>
   <g id="line2d_13">
    <path d="M 66.039915 156.112504 
L 68.140598 206.874695 
L 70.306517 222.541637 
L 72.407547 231.672942 
L 74.556523 238.01508 
L 76.650066 242.162958 
L 80.889433 248.863053 
L 87.132225 255.006352 
L 89.209752 256.479943 
L 91.272049 258.302611 
L 93.34087 259.110848 
L 97.492272 261.510648 
L 101.674876 263.268074 
L 103.767815 263.737079 
L 105.838525 264.685409 
L 110.062238 265.727068 
L 112.14281 266.03431 
L 114.151846 266.46592 
L 116.300073 267.397886 
L 118.384955 267.188787 
L 120.401472 267.930371 
L 124.51437 268.802229 
L 126.57572 268.920747 
L 128.592199 269.377944 
L 130.71445 269.721646 
L 134.758337 269.762774 
L 136.787137 270.398781 
L 138.875386 270.414055 
L 140.888838 270.695673 
L 144.929581 271.001655 
L 147.037067 271.661145 
L 149.061792 271.2113 
L 151.079541 271.467601 
L 155.122663 271.59761 
L 157.240486 271.999666 
L 159.224491 272.097379 
L 163.22515 271.979119 
L 165.229054 272.582133 
L 167.240213 272.203451 
L 171.330338 272.695936 
L 173.341085 272.554351 
L 175.345765 273.008651 
L 177.359901 272.7928 
L 181.423324 273.054968 
L 183.550287 272.924249 
L 185.577031 273.061542 
L 187.679519 273.035678 
L 189.676213 273.308335 
L 191.709056 273.390329 
L 193.751066 273.353519 
L 195.779352 273.502804 
L 197.776585 273.472903 
L 201.820967 273.754075 
L 209.847801 273.651312 
L 211.957118 273.864404 
L 214.008906 273.938011 
L 218.020784 273.924322 
L 226.179423 273.959145 
L 228.265721 274.265215 
L 230.280551 275.327926 
L 232.380233 275.892181 
L 236.562159 276.075913 
L 240.633838 276.139022 
L 250.880917 276.203548 
L 301.850761 276.24193 
L 311.975342 276.267526 
L 320.125745 276.307452 
L 338.392728 276.321462 
L 390.69446 276.33403 
L 390.69446 276.33403 
" clip-path="url(#pd124b26497)" style="fill: none; stroke: #dd8452; stroke-width: 1.5; stroke-linecap: round"/>
   </g>
   <g id="line2d_14">
    <path d="M 66.039915 78.627824 
L 67.914092 125.373489 
L 69.791156 146.628742 
L 71.697753 164.37845 
L 73.606937 178.599619 
L 75.461798 188.972666 
L 79.250524 207.036875 
L 81.028211 214.40383 
L 82.865112 220.800371 
L 84.683158 225.433251 
L 86.550737 229.48509 
L 88.470452 233.21926 
L 90.280181 235.270687 
L 92.162817 238.516324 
L 93.956899 240.557148 
L 95.88044 242.482786 
L 97.594911 244.525497 
L 101.106363 248.136812 
L 102.908633 249.175039 
L 104.737977 250.460112 
L 106.443959 251.189912 
L 108.251684 252.780723 
L 109.964669 253.424726 
L 111.649939 254.749105 
L 113.360216 254.626608 
L 115.051906 256.096818 
L 116.819487 256.21145 
L 120.360345 257.827936 
L 122.180058 257.664883 
L 123.966802 258.711806 
L 125.764298 259.130921 
L 127.534814 259.33774 
L 129.277122 260.190993 
L 130.984371 260.084556 
L 132.714067 261.106441 
L 134.471356 261.13449 
L 136.266241 261.618495 
L 137.97243 261.230888 
L 139.6868 262.13052 
L 141.501977 262.60701 
L 143.219769 262.367949 
L 144.950852 262.466378 
L 146.735235 263.155543 
L 148.474366 263.357228 
L 150.221431 263.386029 
L 151.985669 263.980005 
L 153.739069 263.378363 
L 155.456537 264.186724 
L 157.189111 263.546411 
L 158.927714 264.201896 
L 164.053799 264.491012 
L 165.770768 264.856019 
L 167.470832 264.678197 
L 169.223102 265.622376 
L 170.926482 264.911173 
L 172.641719 265.405528 
L 174.394369 264.978936 
L 176.099399 265.734576 
L 177.85664 265.716095 
L 179.567444 265.109634 
L 181.319039 265.811089 
L 183.02057 265.94004 
L 184.822897 265.516161 
L 186.544617 265.700977 
L 188.263236 266.446422 
L 190.031391 266.162247 
L 191.759064 266.367967 
L 195.426493 265.94302 
L 197.177619 266.559591 
L 198.916743 266.142106 
L 200.656879 266.499232 
L 202.360669 265.788891 
L 204.116413 266.865954 
L 205.806572 266.849558 
L 207.578662 271.983096 
L 209.419567 274.018344 
L 211.257823 274.504934 
L 216.632938 275.277591 
L 234.195844 275.865778 
L 258.615628 276.082013 
L 271.041106 276.110845 
L 276.466058 276.135022 
L 297.78402 276.165954 
L 304.953665 276.167935 
L 333.529129 276.193178 
L 344.327783 276.186627 
L 347.92425 276.184293 
L 347.92425 276.184293 
" clip-path="url(#pd124b26497)" style="fill: none; stroke: #55a868; stroke-width: 1.5; stroke-linecap: round"/>
   </g>
   <g id="patch_3">
    <path d="M 49.807187 288.430125 
L 49.807187 22.318125 
" style="fill: none; stroke: #cccccc; stroke-width: 1.25; stroke-linejoin: miter; stroke-linecap: square"/>
   </g>
   <g id="patch_4">
    <path d="M 406.927188 288.430125 
L 406.927188 22.318125 
" style="fill: none; stroke: #cccccc; stroke-width: 1.25; stroke-linejoin: miter; stroke-linecap: square"/>
   </g>
   <g id="patch_5">
    <path d="M 49.807187 288.430125 
L 406.927187 288.430125 
" style="fill: none; stroke: #cccccc; stroke-width: 1.25; stroke-linejoin: miter; stroke-linecap: square"/>
   </g>
   <g id="patch_6">
    <path d="M 49.807187 22.318125 
L 406.927187 22.318125 
" style="fill: none; stroke: #cccccc; stroke-width: 1.25; stroke-linejoin: miter; stroke-linecap: square"/>
   </g>
   <g id="text_14">
    <!-- train/loss vs wall-clock time -->
    <g style="fill: #262626" transform="translate(145.345937 16.318125) scale(0.12 -0.12)">
     <defs>
      <path id="DejaVuSans-76" d="M 191 3500 
L 800 3500 
L 1894 563 
L 2988 3500 
L 3597 3500 
L 2284 0 
L 1503 0 
L 191 3500 
z
" transform="scale(0.015625)"/>
      <path id="DejaVuSans-77" d="M 269 3500 
L 844 3500 
L 1563 769 
L 2278 3500 
L 2956 3500 
L 3675 769 
L 4391 3500 
L 4966 3500 
L 4050 0 
L 3372 0 
L 2619 2869 
L 1863 0 
L 1184 0 
L 269 3500 
z
" transform="scale(0.015625)"/>
     </defs>
     <use xlink:href="#DejaVuSans-74"/>
     <use xlink:href="#DejaVuSans-72" x="39.208984"/>
     <use xlink:href="#DejaVuSans-61" x="80.322266"/>
     <use xlink:href="#DejaVuSans-69" x="141.601562"/>
     <use xlink:href="#DejaVuSans-6e" x="169.384766"/>
     <use xlink:href="#DejaVuSans-2f" x="232.763672"/>
     <use xlink:href="#DejaVuSans-6c" x="266.455078"/>
     <use xlink:href="#DejaVuSans-6f" x="294.238281"/>
     <use xlink:href="#DejaVuSans-73" x="355.419922"/>
     <use xlink:href="#DejaVuSans-73" x="407.519531"/>
     <use xlink:href="#DejaVuSans-20" x="459.619141"/>
     <use xlink:href="#DejaVuSans-76" x="491.40625"/>
     <use xlink:href="#DejaVuSans-73" x="550.585938"/>
     <use xlink:href="#DejaVuSans-20" x="602.685547"/>
     <use xlink:href="#DejaVuSans-77" x="634.472656"/>
     <use xlink:href="#DejaVuSans-61" x="716.259766"/>
     <use xlink:href="#DejaVuSans-6c" x="777.539062"/>
     <use xlink:href="#DejaVuSans-6c" x="805.322266"/>
     <use xlink:href="#DejaVuSans-2d" x="833.105469"/>
     <use xlink:href="#DejaVuSans-63" x="869.189453"/>
     <use xlink:href="#DejaVuSans-6c" x="924.169922"/>
     <use xlink:href="#DejaVuSans-6f" x="951.953125"/>
     <use xlink:href="#DejaVuSans-63" x="1013.134766"/>
     <use xlink:href="#DejaVuSans-6b" x="1068.115234"/>
     <use xlink:href="#DejaVuSans-20" x="1126.025391"/>
     <use xlink:href="#DejaVuSans-74" x="1157.8125"/>
     <use xlink:href="#DejaVuSans-69" x="1197.021484"/>
     <use xlink:href="#DejaVuSans-6d" x="1224.804688"/>
     <use xlink:href="#DejaVuSans-65" x="1322.216797"/>
    </g>
   </g>
   <g id="legend_1">
    <g id="patch_7">
     <path d="M 292.150781 79.555937 
L 399.227187 79.555937 
Q 401.427187 79.555937 401.427187 77.355937 
L 401.427187 30.018125 
Q 401.427187 27.818125 399.227187 27.818125 
L 292.150781 27.818125 
Q 289.950781 27.818125 289.950781 30.018125 
L 289.950781 77.355937 
Q 289.950781 79.555937 292.150781 79.555937 
z
" style="fill: #ffffff; opacity: 0.8; stroke: #cccccc; stroke-linejoin: miter"/>
    </g>
    <g id="line2d_15">
     <path d="M 294.350781 36.726406 
L 305.350781 36.726406 
L 316.350781 36.726406 
" style="fill: none; stroke: #4c72b0; stroke-width: 1.5; stroke-linecap: round"/>
    </g>
    <g id="text_15">
     <!-- SGD512 -->
     <g style="fill: #262626" transform="translate(325.150781 40.576406) scale(0.11 -0.11)">
      <defs>
       <path id="DejaVuSans-53" d="M 3425 4513 
L 3425 3897 
Q 3066 4069 2747 4153 
Q 2428 4238 2131 4238 
Q 1616 4238 1336 4038 
Q 1056 3838 1056 3469 
Q 1056 3159 1242 3001 
Q 1428 2844 1947 2747 
L 2328 2669 
Q 3034 2534 3370 2195 
Q 3706 1856 3706 1288 
Q 3706 609 3251 259 
Q 2797 -91 1919 -91 
Q 1588 -91 1214 -16 
Q 841 59 441 206 
L 441 856 
Q 825 641 1194 531 
Q 1563 422 1919 422 
Q 2459 422 2753 634 
Q 3047 847 3047 1241 
Q 3047 1584 2836 1778 
Q 2625 1972 2144 2069 
L 1759 2144 
Q 1053 2284 737 2584 
Q 422 2884 422 3419 
Q 422 4038 858 4394 
Q 1294 4750 2059 4750 
Q 2388 4750 2728 4690 
Q 3069 4631 3425 4513 
z
" transform="scale(0.015625)"/>
       <path id="DejaVuSans-47" d="M 3809 666 
L 3809 1919 
L 2778 1919 
L 2778 2438 
L 4434 2438 
L 4434 434 
Q 4069 175 3628 42 
Q 3188 -91 2688 -91 
Q 1594 -91 976 548 
Q 359 1188 359 2328 
Q 359 3472 976 4111 
Q 1594 4750 2688 4750 
Q 3144 4750 3555 4637 
Q 3966 4525 4313 4306 
L 4313 3634 
Q 3963 3931 3569 4081 
Q 3175 4231 2741 4231 
Q 1884 4231 1454 3753 
Q 1025 3275 1025 2328 
Q 1025 1384 1454 906 
Q 1884 428 2741 428 
Q 3075 428 3337 486 
Q 3600 544 3809 666 
z
" transform="scale(0.015625)"/>
       <path id="DejaVuSans-44" d="M 1259 4147 
L 1259 519 
L 2022 519 
Q 2988 519 3436 956 
Q 3884 1394 3884 2338 
Q 3884 3275 3436 3711 
Q 2988 4147 2022 4147 
L 1259 4147 
z
M 628 4666 
L 1925 4666 
Q 3281 4666 3915 4102 
Q 4550 3538 4550 2338 
Q 4550 1131 3912 565 
Q 3275 0 1925 0 
L 628 0 
L 628 4666 
z
" transform="scale(0.015625)"/>
      </defs>
      <use xlink:href="#DejaVuSans-53"/>
      <use xlink:href="#DejaVuSans-47" x="63.476562"/>
      <use xlink:href="#DejaVuSans-44" x="140.966797"/>
      <use xlink:href="#DejaVuSans-35" x="217.96875"/>
      <use xlink:href="#DejaVuSans-31" x="281.591797"/>
      <use xlink:href="#DejaVuSans-32" x="345.214844"/>
     </g>
    </g>
    <g id="line2d_16">
     <path d="M 294.350781 52.872344 
L 305.350781 52.872344 
L 316.350781 52.872344 
" style="fill: none; stroke: #dd8452; stroke-width: 1.5; stroke-linecap: round"/>
    </g>
    <g id="text_16">
     <!-- FROG512s64 -->
     <g style="fill: #262626" transform="translate(325.150781 56.722344) scale(0.11 -0.11)">
      <defs>
       <path id="DejaVuSans-46" d="M 628 4666 
L 3309 4666 
L 3309 4134 
L 1259 4134 
L 1259 2759 
L 3109 2759 
L 3109 2228 
L 1259 2228 
L 1259 0 
L 628 0 
L 628 4666 
z
" transform="scale(0.015625)"/>
       <path id="DejaVuSans-52" d="M 2841 2188 
Q 3044 2119 3236 1894 
Q 3428 1669 3622 1275 
L 4263 0 
L 3584 0 
L 2988 1197 
Q 2756 1666 2539 1819 
Q 2322 1972 1947 1972 
L 1259 1972 
L 1259 0 
L 628 0 
L 628 4666 
L 2053 4666 
Q 2853 4666 3247 4331 
Q 3641 3997 3641 3322 
Q 3641 2881 3436 2590 
Q 3231 2300 2841 2188 
z
M 1259 4147 
L 1259 2491 
L 2053 2491 
Q 2509 2491 2742 2702 
Q 2975 2913 2975 3322 
Q 2975 3731 2742 3939 
Q 2509 4147 2053 4147 
L 1259 4147 
z
" transform="scale(0.015625)"/>
       <path id="DejaVuSans-4f" d="M 2522 4238 
Q 1834 4238 1429 3725 
Q 1025 3213 1025 2328 
Q 1025 1447 1429 934 
Q 1834 422 2522 422 
Q 3209 422 3611 934 
Q 4013 1447 4013 2328 
Q 4013 3213 3611 3725 
Q 3209 4238 2522 4238 
z
M 2522 4750 
Q 3503 4750 4090 4092 
Q 4678 3434 4678 2328 
Q 4678 1225 4090 567 
Q 3503 -91 2522 -91 
Q 1538 -91 948 565 
Q 359 1222 359 2328 
Q 359 3434 948 4092 
Q 1538 4750 2522 4750 
z
" transform="scale(0.015625)"/>
       <path id="DejaVuSans-36" d="M 2113 2584 
Q 1688 2584 1439 2293 
Q 1191 2003 1191 1497 
Q 1191 994 1439 701 
Q 1688 409 2113 409 
Q 2538 409 2786 701 
Q 3034 994 3034 1497 
Q 3034 2003 2786 2293 
Q 2538 2584 2113 2584 
z
M 3366 4563 
L 3366 3988 
Q 3128 4100 2886 4159 
Q 2644 4219 2406 4219 
Q 1781 4219 1451 3797 
Q 1122 3375 1075 2522 
Q 1259 2794 1537 2939 
Q 1816 3084 2150 3084 
Q 2853 3084 3261 2657 
Q 3669 2231 3669 1497 
Q 3669 778 3244 343 
Q 2819 -91 2113 -91 
Q 1303 -91 875 529 
Q 447 1150 447 2328 
Q 447 3434 972 4092 
Q 1497 4750 2381 4750 
Q 2619 4750 2861 4703 
Q 3103 4656 3366 4563 
z
" transform="scale(0.015625)"/>
       <path id="DejaVuSans-34" d="M 2419 4116 
L 825 1625 
L 2419 1625 
L 2419 4116 
z
M 2253 4666 
L 3047 4666 
L 3047 1625 
L 3713 1625 
L 3713 1100 
L 3047 1100 
L 3047 0 
L 2419 0 
L 2419 1100 
L 313 1100 
L 313 1709 
L 2253 4666 
z
" transform="scale(0.015625)"/>
      </defs>
      <use xlink:href="#DejaVuSans-46"/>
      <use xlink:href="#DejaVuSans-52" x="57.519531"/>
      <use xlink:href="#DejaVuSans-4f" x="127.001953"/>
      <use xlink:href="#DejaVuSans-47" x="205.712891"/>
      <use xlink:href="#DejaVuSans-35" x="283.203125"/>
      <use xlink:href="#DejaVuSans-31" x="346.826172"/>
      <use xlink:href="#DejaVuSans-32" x="410.449219"/>
      <use xlink:href="#DejaVuSans-73" x="474.072266"/>
      <use xlink:href="#DejaVuSans-36" x="526.171875"/>
      <use xlink:href="#DejaVuSans-34" x="589.794922"/>
     </g>
    </g>
    <g id="line2d_17">
     <path d="M 294.350781 69.018281 
L 305.350781 69.018281 
L 316.350781 69.018281 
" style="fill: none; stroke: #55a868; stroke-width: 1.5; stroke-linecap: round"/>
    </g>
    <g id="text_17">
     <!-- SGD128 -->
     <g style="fill: #262626" transform="translate(325.150781 72.868281) scale(0.11 -0.11)">
      <defs>
       <path id="DejaVuSans-38" d="M 2034 2216 
Q 1584 2216 1326 1975 
Q 1069 1734 1069 1313 
Q 1069 891 1326 650 
Q 1584 409 2034 409 
Q 2484 409 2743 651 
Q 3003 894 3003 1313 
Q 3003 1734 2745 1975 
Q 2488 2216 2034 2216 
z
M 1403 2484 
Q 997 2584 770 2862 
Q 544 3141 544 3541 
Q 544 4100 942 4425 
Q 1341 4750 2034 4750 
Q 2731 4750 3128 4425 
Q 3525 4100 3525 3541 
Q 3525 3141 3298 2862 
Q 3072 2584 2669 2484 
Q 3125 2378 3379 2068 
Q 3634 1759 3634 1313 
Q 3634 634 3220 271 
Q 2806 -91 2034 -91 
Q 1263 -91 848 271 
Q 434 634 434 1313 
Q 434 1759 690 2068 
Q 947 2378 1403 2484 
z
M 1172 3481 
Q 1172 3119 1398 2916 
Q 1625 2713 2034 2713 
Q 2441 2713 2670 2916 
Q 2900 3119 2900 3481 
Q 2900 3844 2670 4047 
Q 2441 4250 2034 4250 
Q 1625 4250 1398 4047 
Q 1172 3844 1172 3481 
z
" transform="scale(0.015625)"/>
      </defs>
      <use xlink:href="#DejaVuSans-53"/>
      <use xlink:href="#DejaVuSans-47" x="63.476562"/>
      <use xlink:href="#DejaVuSans-44" x="140.966797"/>
      <use xlink:href="#DejaVuSans-31" x="217.96875"/>
      <use xlink:href="#DejaVuSans-32" x="281.591797"/>
      <use xlink:href="#DejaVuSans-38" x="345.214844"/>
     </g>
    </g>
   </g>
  </g>
 </g>
 <defs>
  <clipPath id="pd124b26497">
   <rect x="49.807187" y="22.318125" width="357.12" height="266.112"/>
  </clipPath>
 </defs>
</svg>
