<?xml version="1.0" encoding="utf-8" standalone="no"?>
<!DOCTYPE svg PUBLIC "-//W3C//DTD SVG 1.1//EN"
  "http://www.w3.org/Graphics/SVG/1.1/DTD/svg11.dtd">
<svg xmlns:xlink="http://www.w3.org/1999/xlink" width="410.63125pt" height="331.389812pt" viewBox="0 0 410.63125 331.389812" xmlns="http://www.w3.org/2000/svg" version="1.1">
 <metadata>
  <rdf:RDF xmlns:dc="http://purl.org/dc/elements/1.1/" xmlns:cc="http://creativecommons.org/ns#" xmlns:rdf="http://www.w3.org/1999/02/22-rdf-syntax-ns#">
   <cc:Work>
    <dc:type rdf:resource="http://purl.org/dc/dcmitype/StillImage"/>
    <dc:date>2026-01-25T08:48:36.269752</dc:date>
    <dc:format>image/svg+xml</dc:format>
    <dc:creator>
     <cc:Agent>
      <dc:title>Matplotlib v3.8.4, https://matplotlib.org/</dc:title>
     </cc:Agent>
    </dc:creator>
   </cc:Work>
  </rdf:RDF>
 </metadata>
 <defs>
  <style type="text/css">*{stroke-linejoin: round; stroke-linecap: butt}</style>
 </defs>
 <g id="figure_1">
  <g id="patch_1">
   <path d="M 0 331.389812 
L 410.63125 331.389812 
L 410.63125 0 
L 0 0 
z
" style="fill: #ffffff"/>
  </g>
  <g id="axes_1">
   <g id="patch_2">
    <path d="M 46.31125 288.430125 
L 403.43125 288.430125 
L 403.43125 22.318125 
L 46.31125 22.318125 
z
" style="fill: #ffffff"/>
   </g>
   <g id="matplotlib.axis_1">
    <g id="xtick_1">
     <g id="line2d_1">
      <path d="M 62.543977 288.430125 
L 62.543977 22.318125 
" clip-path="url(#p03e5b33ac7)" style="fill: none; stroke: #cccccc; stroke-linecap: round"/>
     </g>
     <g id="text_1">
      <!-- 0 -->
      <g style="fill: #262626" transform="translate(59.044602 306.288406) scale(0.11 -0.11)">
       <defs>
        <path id="DejaVuSans-30" d="M 2034 4250 
Q 1547 4250 1301 3770 
Q 1056 3291 1056 2328 
Q 1056 1369 1301 889 
Q 1547 409 2034 409 
Q 2525 409 2770 889 
Q 3016 1369 3016 2328 
Q 3016 3291 2770 3770 
Q 2525 4250 2034 4250 
z
M 2034 4750 
Q 2819 4750 3233 4129 
Q 3647 3509 3647 2328 
Q 3647 1150 3233 529 
Q 2819 -91 2034 -91 
Q 1250 -91 836 529 
Q 422 1150 422 2328 
Q 422 3509 836 4129 
Q 1250 4750 2034 4750 
z
" transform="scale(0.015625)"/>
       </defs>
       <use xlink:href="#DejaVuSans-30"/>
      </g>
     </g>
    </g>
    <g id="xtick_2">
     <g id="line2d_2">
      <path d="M 136.033366 288.430125 
L 136.033366 22.318125 
" clip-path="url(#p03e5b33ac7)" style="fill: none; stroke: #cccccc; stroke-linecap: round"/>
     </g>
     <g id="text_2">
      <!-- 5 -->
      <g style="fill: #262626" transform="translate(132.533991 306.288406) scale(0.11 -0.11)">
       <defs>
        <path id="DejaVuSans-35" d="M 691 4666 
L 3169 4666 
L 3169 4134 
L 1269 4134 
L 1269 2991 
Q 1406 3038 1543 3061 
Q 1681 3084 1819 3084 
Q 2600 3084 3056 2656 
Q 3513 2228 3513 1497 
Q 3513 744 3044 326 
Q 2575 -91 1722 -91 
Q 1428 -91 1123 -41 
Q 819 9 494 109 
L 494 744 
Q 775 591 1075 516 
Q 1375 441 1709 441 
Q 2250 441 2565 725 
Q 2881 1009 2881 1497 
Q 2881 1984 2565 2268 
Q 2250 2553 1709 2553 
Q 1456 2553 1204 2497 
Q 953 2441 691 2322 
L 691 4666 
z
" transform="scale(0.015625)"/>
       </defs>
       <use xlink:href="#DejaVuSans-35"/>
      </g>
     </g>
    </g>
    <g id="xtick_3">
     <g id="line2d_3">
      <path d="M 209.522754 288.430125 
L 209.522754 22.318125 
" clip-path="url(#p03e5b33ac7)" style="fill: none; stroke: #cccccc; stroke-linecap: round"/>
     </g>
     <g id="text_3">
      <!-- 10 -->
      <g style="fill: #262626" transform="translate(202.524004 306.288406) scale(0.11 -0.11)">
       <defs>
        <path id="DejaVuSans-31" d="M 794 531 
L 1825 531 
L 1825 4091 
L 703 3866 
L 703 4441 
L 1819 4666 
L 2450 4666 
L 2450 531 
L 3481 531 
L 3481 0 
L 794 0 
L 794 531 
z
" transform="scale(0.015625)"/>
       </defs>
       <use xlink:href="#DejaVuSans-31"/>
       <use xlink:href="#DejaVuSans-30" x="63.623047"/>
      </g>
     </g>
    </g>
    <g id="xtick_4">
     <g id="line2d_4">
      <path d="M 283.012143 288.430125 
L 283.012143 22.318125 
" clip-path="url(#p03e5b33ac7)" style="fill: none; stroke: #cccccc; stroke-linecap: round"/>
     </g>
     <g id="text_4">
      <!-- 15 -->
      <g style="fill: #262626" transform="translate(276.013393 306.288406) scale(0.11 -0.11)">
       <use xlink:href="#DejaVuSans-31"/>
       <use xlink:href="#DejaVuSans-35" x="63.623047"/>
      </g>
     </g>
    </g>
    <g id="xtick_5">
     <g id="line2d_5">
      <path d="M 356.501531 288.430125 
L 356.501531 22.318125 
" clip-path="url(#p03e5b33ac7)" style="fill: none; stroke: #cccccc; stroke-linecap: round"/>
     </g>
     <g id="text_5">
      <!-- 20 -->
      <g style="fill: #262626" transform="translate(349.502781 306.288406) scale(0.11 -0.11)">
       <defs>
        <path id="DejaVuSans-32" d="M 1228 531 
L 3431 531 
L 3431 0 
L 469 0 
L 469 531 
Q 828 903 1448 1529 
Q 2069 2156 2228 2338 
Q 2531 2678 2651 2914 
Q 2772 3150 2772 3378 
Q 2772 3750 2511 3984 
Q 2250 4219 1831 4219 
Q 1534 4219 1204 4116 
Q 875 4013 500 3803 
L 500 4441 
Q 881 4594 1212 4672 
Q 1544 4750 1819 4750 
Q 2544 4750 2975 4387 
Q 3406 4025 3406 3419 
Q 3406 3131 3298 2873 
Q 3191 2616 2906 2266 
Q 2828 2175 2409 1742 
Q 1991 1309 1228 531 
z
" transform="scale(0.015625)"/>
       </defs>
       <use xlink:href="#DejaVuSans-32"/>
       <use xlink:href="#DejaVuSans-30" x="63.623047"/>
      </g>
     </g>
    </g>
    <g id="text_6">
     <!-- Wall-clock time since run start (minutes) -->
     <g style="fill: #262626" transform="translate(103.046875 321.694187) scale(0.12 -0.12)">
      <defs>
       <path id="DejaVuSans-57" d="M 213 4666 
L 850 4666 
L 1831 722 
L 2809 4666 
L 3519 4666 
L 4500 722 
L 5478 4666 
L 6119 4666 
L 4947 0 
L 4153 0 
L 3169 4050 
L 2175 0 
L 1381 0 
L 213 4666 
z
" transform="scale(0.015625)"/>
       <path id="DejaVuSans-61" d="M 2194 1759 
Q 1497 1759 1228 1600 
Q 959 1441 959 1056 
Q 959 750 1161 570 
Q 1363 391 1709 391 
Q 2188 391 2477 730 
Q 2766 1069 2766 1631 
L 2766 1759 
L 2194 1759 
z
M 3341 1997 
L 3341 0 
L 2766 0 
L 2766 531 
Q 2569 213 2275 61 
Q 1981 -91 1556 -91 
Q 1019 -91 701 211 
Q 384 513 384 1019 
Q 384 1609 779 1909 
Q 1175 2209 1959 2209 
L 2766 2209 
L 2766 2266 
Q 2766 2663 2505 2880 
Q 2244 3097 1772 3097 
Q 1472 3097 1187 3025 
Q 903 2953 641 2809 
L 641 3341 
Q 956 3463 1253 3523 
Q 1550 3584 1831 3584 
Q 2591 3584 2966 3190 
Q 3341 2797 3341 1997 
z
" transform="scale(0.015625)"/>
       <path id="DejaVuSans-6c" d="M 603 4863 
L 1178 4863 
L 1178 0 
L 603 0 
L 603 4863 
z
" transform="scale(0.015625)"/>
       <path id="DejaVuSans-2d" d="M 313 2009 
L 1997 2009 
L 1997 1497 
L 313 1497 
L 313 2009 
z
" transform="scale(0.015625)"/>
       <path id="DejaVuSans-63" d="M 3122 3366 
L 3122 2828 
Q 2878 2963 2633 3030 
Q 2388 3097 2138 3097 
Q 1578 3097 1268 2742 
Q 959 2388 959 1747 
Q 959 1106 1268 751 
Q 1578 397 2138 397 
Q 2388 397 2633 464 
Q 2878 531 3122 666 
L 3122 134 
Q 2881 22 2623 -34 
Q 2366 -91 2075 -91 
Q 1284 -91 818 406 
Q 353 903 353 1747 
Q 353 2603 823 3093 
Q 1294 3584 2113 3584 
Q 2378 3584 2631 3529 
Q 2884 3475 3122 3366 
z
" transform="scale(0.015625)"/>
       <path id="DejaVuSans-6f" d="M 1959 3097 
Q 1497 3097 1228 2736 
Q 959 2375 959 1747 
Q 959 1119 1226 758 
Q 1494 397 1959 397 
Q 2419 397 2687 759 
Q 2956 1122 2956 1747 
Q 2956 2369 2687 2733 
Q 2419 3097 1959 3097 
z
M 1959 3584 
Q 2709 3584 3137 3096 
Q 3566 2609 3566 1747 
Q 3566 888 3137 398 
Q 2709 -91 1959 -91 
Q 1206 -91 779 398 
Q 353 888 353 1747 
Q 353 2609 779 3096 
Q 1206 3584 1959 3584 
z
" transform="scale(0.015625)"/>
       <path id="DejaVuSans-6b" d="M 581 4863 
L 1159 4863 
L 1159 1991 
L 2875 3500 
L 3609 3500 
L 1753 1863 
L 3688 0 
L 2938 0 
L 1159 1709 
L 1159 0 
L 581 0 
L 581 4863 
z
" transform="scale(0.015625)"/>
       <path id="DejaVuSans-20" transform="scale(0.015625)"/>
       <path id="DejaVuSans-74" d="M 1172 4494 
L 1172 3500 
L 2356 3500 
L 2356 3053 
L 1172 3053 
L 1172 1153 
Q 1172 725 1289 603 
Q 1406 481 1766 481 
L 2356 481 
L 2356 0 
L 1766 0 
Q 1100 0 847 248 
Q 594 497 594 1153 
L 594 3053 
L 172 3053 
L 172 3500 
L 594 3500 
L 594 4494 
L 1172 4494 
z
" transform="scale(0.015625)"/>
       <path id="DejaVuSans-69" d="M 603 3500 
L 1178 3500 
L 1178 0 
L 603 0 
L 603 3500 
z
M 603 4863 
L 1178 4863 
L 1178 4134 
L 603 4134 
L 603 4863 
z
" transform="scale(0.015625)"/>
       <path id="DejaVuSans-6d" d="M 3328 2828 
Q 3544 3216 3844 3400 
Q 4144 3584 4550 3584 
Q 5097 3584 5394 3201 
Q 5691 2819 5691 2113 
L 5691 0 
L 5113 0 
L 5113 2094 
Q 5113 2597 4934 2840 
Q 4756 3084 4391 3084 
Q 3944 3084 3684 2787 
Q 3425 2491 3425 1978 
L 3425 0 
L 2847 0 
L 2847 2094 
Q 2847 2600 2669 2842 
Q 2491 3084 2119 3084 
Q 1678 3084 1418 2786 
Q 1159 2488 1159 1978 
L 1159 0 
L 581 0 
L 581 3500 
L 1159 3500 
L 1159 2956 
Q 1356 3278 1631 3431 
Q 1906 3584 2284 3584 
Q 2666 3584 2933 3390 
Q 3200 3197 3328 2828 
z
" transform="scale(0.015625)"/>
       <path id="DejaVuSans-65" d="M 3597 1894 
L 3597 1613 
L 953 1613 
Q 991 1019 1311 708 
Q 1631 397 2203 397 
Q 2534 397 2845 478 
Q 3156 559 3463 722 
L 3463 178 
Q 3153 47 2828 -22 
Q 2503 -91 2169 -91 
Q 1331 -91 842 396 
Q 353 884 353 1716 
Q 353 2575 817 3079 
Q 1281 3584 2069 3584 
Q 2775 3584 3186 3129 
Q 3597 2675 3597 1894 
z
M 3022 2063 
Q 3016 2534 2758 2815 
Q 2500 3097 2075 3097 
Q 1594 3097 1305 2825 
Q 1016 2553 972 2059 
L 3022 2063 
z
" transform="scale(0.015625)"/>
       <path id="DejaVuSans-73" d="M 2834 3397 
L 2834 2853 
Q 2591 2978 2328 3040 
Q 2066 3103 1784 3103 
Q 1356 3103 1142 2972 
Q 928 2841 928 2578 
Q 928 2378 1081 2264 
Q 1234 2150 1697 2047 
L 1894 2003 
Q 2506 1872 2764 1633 
Q 3022 1394 3022 966 
Q 3022 478 2636 193 
Q 2250 -91 1575 -91 
Q 1294 -91 989 -36 
Q 684 19 347 128 
L 347 722 
Q 666 556 975 473 
Q 1284 391 1588 391 
Q 1994 391 2212 530 
Q 2431 669 2431 922 
Q 2431 1156 2273 1281 
Q 2116 1406 1581 1522 
L 1381 1569 
Q 847 1681 609 1914 
Q 372 2147 372 2553 
Q 372 3047 722 3315 
Q 1072 3584 1716 3584 
Q 2034 3584 2315 3537 
Q 2597 3491 2834 3397 
z
" transform="scale(0.015625)"/>
       <path id="DejaVuSans-6e" d="M 3513 2113 
L 3513 0 
L 2938 0 
L 2938 2094 
Q 2938 2591 2744 2837 
Q 2550 3084 2163 3084 
Q 1697 3084 1428 2787 
Q 1159 2491 1159 1978 
L 1159 0 
L 581 0 
L 581 3500 
L 1159 3500 
L 1159 2956 
Q 1366 3272 1645 3428 
Q 1925 3584 2291 3584 
Q 2894 3584 3203 3211 
Q 3513 2838 3513 2113 
z
" transform="scale(0.015625)"/>
       <path id="DejaVuSans-72" d="M 2631 2963 
Q 2534 3019 2420 3045 
Q 2306 3072 2169 3072 
Q 1681 3072 1420 2755 
Q 1159 2438 1159 1844 
L 1159 0 
L 581 0 
L 581 3500 
L 1159 3500 
L 1159 2956 
Q 1341 3275 1631 3429 
Q 1922 3584 2338 3584 
Q 2397 3584 2469 3576 
Q 2541 3569 2628 3553 
L 2631 2963 
z
" transform="scale(0.015625)"/>
       <path id="DejaVuSans-75" d="M 544 1381 
L 544 3500 
L 1119 3500 
L 1119 1403 
Q 1119 906 1312 657 
Q 1506 409 1894 409 
Q 2359 409 2629 706 
Q 2900 1003 2900 1516 
L 2900 3500 
L 3475 3500 
L 3475 0 
L 2900 0 
L 2900 538 
Q 2691 219 2414 64 
Q 2138 -91 1772 -91 
Q 1169 -91 856 284 
Q 544 659 544 1381 
z
M 1991 3584 
L 1991 3584 
z
" transform="scale(0.015625)"/>
       <path id="DejaVuSans-28" d="M 1984 4856 
Q 1566 4138 1362 3434 
Q 1159 2731 1159 2009 
Q 1159 1288 1364 580 
Q 1569 -128 1984 -844 
L 1484 -844 
Q 1016 -109 783 600 
Q 550 1309 550 2009 
Q 550 2706 781 3412 
Q 1013 4119 1484 4856 
L 1984 4856 
z
" transform="scale(0.015625)"/>
       <path id="DejaVuSans-29" d="M 513 4856 
L 1013 4856 
Q 1481 4119 1714 3412 
Q 1947 2706 1947 2009 
Q 1947 1309 1714 600 
Q 1481 -109 1013 -844 
L 513 -844 
Q 928 -128 1133 580 
Q 1338 1288 1338 2009 
Q 1338 2731 1133 3434 
Q 928 4138 513 4856 
z
" transform="scale(0.015625)"/>
      </defs>
      <use xlink:href="#DejaVuSans-57"/>
      <use xlink:href="#DejaVuSans-61" x="92.501953"/>
      <use xlink:href="#DejaVuSans-6c" x="153.78125"/>
      <use xlink:href="#DejaVuSans-6c" x="181.564453"/>
      <use xlink:href="#DejaVuSans-2d" x="209.347656"/>
      <use xlink:href="#DejaVuSans-63" x="245.431641"/>
      <use xlink:href="#DejaVuSans-6c" x="300.412109"/>
      <use xlink:href="#DejaVuSans-6f" x="328.195312"/>
      <use xlink:href="#DejaVuSans-63" x="389.376953"/>
      <use xlink:href="#DejaVuSans-6b" x="444.357422"/>
      <use xlink:href="#DejaVuSans-20" x="502.267578"/>
      <use xlink:href="#DejaVuSans-74" x="534.054688"/>
      <use xlink:href="#DejaVuSans-69" x="573.263672"/>
      <use xlink:href="#DejaVuSans-6d" x="601.046875"/>
      <use xlink:href="#DejaVuSans-65" x="698.458984"/>
      <use xlink:href="#DejaVuSans-20" x="759.982422"/>
      <use xlink:href="#DejaVuSans-73" x="791.769531"/>
      <use xlink:href="#DejaVuSans-69" x="843.869141"/>
      <use xlink:href="#DejaVuSans-6e" x="871.652344"/>
      <use xlink:href="#DejaVuSans-63" x="935.03125"/>
      <use xlink:href="#DejaVuSans-65" x="990.011719"/>
      <use xlink:href="#DejaVuSans-20" x="1051.535156"/>
      <use xlink:href="#DejaVuSans-72" x="1083.322266"/>
      <use xlink:href="#DejaVuSans-75" x="1124.435547"/>
      <use xlink:href="#DejaVuSans-6e" x="1187.814453"/>
      <use xlink:href="#DejaVuSans-20" x="1251.193359"/>
      <use xlink:href="#DejaVuSans-73" x="1282.980469"/>
      <use xlink:href="#DejaVuSans-74" x="1335.080078"/>
      <use xlink:href="#DejaVuSans-61" x="1374.289062"/>
      <use xlink:href="#DejaVuSans-72" x="1435.568359"/>
      <use xlink:href="#DejaVuSans-74" x="1476.681641"/>
      <use xlink:href="#DejaVuSans-20" x="1515.890625"/>
      <use xlink:href="#DejaVuSans-28" x="1547.677734"/>
      <use xlink:href="#DejaVuSans-6d" x="1586.691406"/>
      <use xlink:href="#DejaVuSans-69" x="1684.103516"/>
      <use xlink:href="#DejaVuSans-6e" x="1711.886719"/>
      <use xlink:href="#DejaVuSans-75" x="1775.265625"/>
      <use xlink:href="#DejaVuSans-74" x="1838.644531"/>
      <use xlink:href="#DejaVuSans-65" x="1877.853516"/>
      <use xlink:href="#DejaVuSans-73" x="1939.376953"/>
      <use xlink:href="#DejaVuSans-29" x="1991.476562"/>
     </g>
    </g>
   </g>
   <g id="matplotlib.axis_2">
    <g id="ytick_1">
     <g id="line2d_6">
      <path d="M 46.31125 276.259064 
L 403.43125 276.259064 
" clip-path="url(#p03e5b33ac7)" style="fill: none; stroke: #cccccc; stroke-linecap: round"/>
     </g>
     <g id="text_7">
      <!-- 30 -->
      <g style="fill: #262626" transform="translate(22.81375 280.438205) scale(0.11 -0.11)">
       <defs>
        <path id="DejaVuSans-33" d="M 2597 2516 
Q 3050 2419 3304 2112 
Q 3559 1806 3559 1356 
Q 3559 666 3084 287 
Q 2609 -91 1734 -91 
Q 1441 -91 1130 -33 
Q 819 25 488 141 
L 488 750 
Q 750 597 1062 519 
Q 1375 441 1716 441 
Q 2309 441 2620 675 
Q 2931 909 2931 1356 
Q 2931 1769 2642 2001 
Q 2353 2234 1838 2234 
L 1294 2234 
L 1294 2753 
L 1863 2753 
Q 2328 2753 2575 2939 
Q 2822 3125 2822 3475 
Q 2822 3834 2567 4026 
Q 2313 4219 1838 4219 
Q 1578 4219 1281 4162 
Q 984 4106 628 3988 
L 628 4550 
Q 988 4650 1302 4700 
Q 1616 4750 1894 4750 
Q 2613 4750 3031 4423 
Q 3450 4097 3450 3541 
Q 3450 3153 3228 2886 
Q 3006 2619 2597 2516 
z
" transform="scale(0.015625)"/>
       </defs>
       <use xlink:href="#DejaVuSans-33"/>
       <use xlink:href="#DejaVuSans-30" x="63.623047"/>
      </g>
     </g>
    </g>
    <g id="ytick_2">
     <g id="line2d_7">
      <path d="M 46.31125 238.728813 
L 403.43125 238.728813 
" clip-path="url(#p03e5b33ac7)" style="fill: none; stroke: #cccccc; stroke-linecap: round"/>
     </g>
     <g id="text_8">
      <!-- 40 -->
      <g style="fill: #262626" transform="translate(22.81375 242.907954) scale(0.11 -0.11)">
       <defs>
        <path id="DejaVuSans-34" d="M 2419 4116 
L 825 1625 
L 2419 1625 
L 2419 4116 
z
M 2253 4666 
L 3047 4666 
L 3047 1625 
L 3713 1625 
L 3713 1100 
L 3047 1100 
L 3047 0 
L 2419 0 
L 2419 1100 
L 313 1100 
L 313 1709 
L 2253 4666 
z
" transform="scale(0.015625)"/>
       </defs>
       <use xlink:href="#DejaVuSans-34"/>
       <use xlink:href="#DejaVuSans-30" x="63.623047"/>
      </g>
     </g>
    </g>
    <g id="ytick_3">
     <g id="line2d_8">
      <path d="M 46.31125 201.198562 
L 403.43125 201.198562 
" clip-path="url(#p03e5b33ac7)" style="fill: none; stroke: #cccccc; stroke-linecap: round"/>
     </g>
     <g id="text_9">
      <!-- 50 -->
      <g style="fill: #262626" transform="translate(22.81375 205.377702) scale(0.11 -0.11)">
       <use xlink:href="#DejaVuSans-35"/>
       <use xlink:href="#DejaVuSans-30" x="63.623047"/>
      </g>
     </g>
    </g>
    <g id="ytick_4">
     <g id="line2d_9">
      <path d="M 46.31125 163.668311 
L 403.43125 163.668311 
" clip-path="url(#p03e5b33ac7)" style="fill: none; stroke: #cccccc; stroke-linecap: round"/>
     </g>
     <g id="text_10">
      <!-- 60 -->
      <g style="fill: #262626" transform="translate(22.81375 167.847451) scale(0.11 -0.11)">
       <defs>
        <path id="DejaVuSans-36" d="M 2113 2584 
Q 1688 2584 1439 2293 
Q 1191 2003 1191 1497 
Q 1191 994 1439 701 
Q 1688 409 2113 409 
Q 2538 409 2786 701 
Q 3034 994 3034 1497 
Q 3034 2003 2786 2293 
Q 2538 2584 2113 2584 
z
M 3366 4563 
L 3366 3988 
Q 3128 4100 2886 4159 
Q 2644 4219 2406 4219 
Q 1781 4219 1451 3797 
Q 1122 3375 1075 2522 
Q 1259 2794 1537 2939 
Q 1816 3084 2150 3084 
Q 2853 3084 3261 2657 
Q 3669 2231 3669 1497 
Q 3669 778 3244 343 
Q 2819 -91 2113 -91 
Q 1303 -91 875 529 
Q 447 1150 447 2328 
Q 447 3434 972 4092 
Q 1497 4750 2381 4750 
Q 2619 4750 2861 4703 
Q 3103 4656 3366 4563 
z
" transform="scale(0.015625)"/>
       </defs>
       <use xlink:href="#DejaVuSans-36"/>
       <use xlink:href="#DejaVuSans-30" x="63.623047"/>
      </g>
     </g>
    </g>
    <g id="ytick_5">
     <g id="line2d_10">
      <path d="M 46.31125 126.138059 
L 403.43125 126.138059 
" clip-path="url(#p03e5b33ac7)" style="fill: none; stroke: #cccccc; stroke-linecap: round"/>
     </g>
     <g id="text_11">
      <!-- 70 -->
      <g style="fill: #262626" transform="translate(22.81375 130.3172) scale(0.11 -0.11)">
       <defs>
        <path id="DejaVuSans-37" d="M 525 4666 
L 3525 4666 
L 3525 4397 
L 1831 0 
L 1172 0 
L 2766 4134 
L 525 4134 
L 525 4666 
z
" transform="scale(0.015625)"/>
       </defs>
       <use xlink:href="#DejaVuSans-37"/>
       <use xlink:href="#DejaVuSans-30" x="63.623047"/>
      </g>
     </g>
    </g>
    <g id="ytick_6">
     <g id="line2d_11">
      <path d="M 46.31125 88.607808 
L 403.43125 88.607808 
" clip-path="url(#p03e5b33ac7)" style="fill: none; stroke: #cccccc; stroke-linecap: round"/>
     </g>
     <g id="text_12">
      <!-- 80 -->
      <g style="fill: #262626" transform="translate(22.81375 92.786949) scale(0.11 -0.11)">
       <defs>
        <path id="DejaVuSans-38" d="M 2034 2216 
Q 1584 2216 1326 1975 
Q 1069 1734 1069 1313 
Q 1069 891 1326 650 
Q 1584 409 2034 409 
Q 2484 409 2743 651 
Q 3003 894 3003 1313 
Q 3003 1734 2745 1975 
Q 2488 2216 2034 2216 
z
M 1403 2484 
Q 997 2584 770 2862 
Q 544 3141 544 3541 
Q 544 4100 942 4425 
Q 1341 4750 2034 4750 
Q 2731 4750 3128 4425 
Q 3525 4100 3525 3541 
Q 3525 3141 3298 2862 
Q 3072 2584 2669 2484 
Q 3125 2378 3379 2068 
Q 3634 1759 3634 1313 
Q 3634 634 3220 271 
Q 2806 -91 2034 -91 
Q 1263 -91 848 271 
Q 434 634 434 1313 
Q 434 1759 690 2068 
Q 947 2378 1403 2484 
z
M 1172 3481 
Q 1172 3119 1398 2916 
Q 1625 2713 2034 2713 
Q 2441 2713 2670 2916 
Q 2900 3119 2900 3481 
Q 2900 3844 2670 4047 
Q 2441 4250 2034 4250 
Q 1625 4250 1398 4047 
Q 1172 3844 1172 3481 
z
" transform="scale(0.015625)"/>
       </defs>
       <use xlink:href="#DejaVuSans-38"/>
       <use xlink:href="#DejaVuSans-30" x="63.623047"/>
      </g>
     </g>
    </g>
    <g id="ytick_7">
     <g id="line2d_12">
      <path d="M 46.31125 51.077557 
L 403.43125 51.077557 
" clip-path="url(#p03e5b33ac7)" style="fill: none; stroke: #cccccc; stroke-linecap: round"/>
     </g>
     <g id="text_13">
      <!-- 90 -->
      <g style="fill: #262626" transform="translate(22.81375 55.256697) scale(0.11 -0.11)">
       <defs>
        <path id="DejaVuSans-39" d="M 703 97 
L 703 672 
Q 941 559 1184 500 
Q 1428 441 1663 441 
Q 2288 441 2617 861 
Q 2947 1281 2994 2138 
Q 2813 1869 2534 1725 
Q 2256 1581 1919 1581 
Q 1219 1581 811 2004 
Q 403 2428 403 3163 
Q 403 3881 828 4315 
Q 1253 4750 1959 4750 
Q 2769 4750 3195 4129 
Q 3622 3509 3622 2328 
Q 3622 1225 3098 567 
Q 2575 -91 1691 -91 
Q 1453 -91 1209 -44 
Q 966 3 703 97 
z
M 1959 2075 
Q 2384 2075 2632 2365 
Q 2881 2656 2881 3163 
Q 2881 3666 2632 3958 
Q 2384 4250 1959 4250 
Q 1534 4250 1286 3958 
Q 1038 3666 1038 3163 
Q 1038 2656 1286 2365 
Q 1534 2075 1959 2075 
z
" transform="scale(0.015625)"/>
       </defs>
       <use xlink:href="#DejaVuSans-39"/>
       <use xlink:href="#DejaVuSans-30" x="63.623047"/>
      </g>
     </g>
    </g>
    <g id="text_14">
     <!-- test/accuracy -->
     <g style="fill: #262626" transform="translate(16.318125 195.9885) rotate(-90) scale(0.12 -0.12)">
      <defs>
       <path id="DejaVuSans-2f" d="M 1625 4666 
L 2156 4666 
L 531 -594 
L 0 -594 
L 1625 4666 
z
" transform="scale(0.015625)"/>
       <path id="DejaVuSans-79" d="M 2059 -325 
Q 1816 -950 1584 -1140 
Q 1353 -1331 966 -1331 
L 506 -1331 
L 506 -850 
L 844 -850 
Q 1081 -850 1212 -737 
Q 1344 -625 1503 -206 
L 1606 56 
L 191 3500 
L 800 3500 
L 1894 763 
L 2988 3500 
L 3597 3500 
L 2059 -325 
z
" transform="scale(0.015625)"/>
      </defs>
      <use xlink:href="#DejaVuSans-74"/>
      <use xlink:href="#DejaVuSans-65" x="39.208984"/>
      <use xlink:href="#DejaVuSans-73" x="100.732422"/>
      <use xlink:href="#DejaVuSans-74" x="152.832031"/>
      <use xlink:href="#DejaVuSans-2f" x="192.041016"/>
      <use xlink:href="#DejaVuSans-61" x="225.732422"/>
      <use xlink:href="#DejaVuSans-63" x="287.011719"/>
      <use xlink:href="#DejaVuSans-63" x="341.992188"/>
      <use xlink:href="#DejaVuSans-75" x="396.972656"/>
      <use xlink:href="#DejaVuSans-72" x="460.351562"/>
      <use xlink:href="#DejaVuSans-61" x="501.464844"/>
      <use xlink:href="#DejaVuSans-63" x="562.744141"/>
      <use xlink:href="#DejaVuSans-79" x="617.724609"/>
     </g>
    </g>
   </g>
   <g id="line2d_13">
    <path d="M 62.543977 276.334125 
L 64.231757 233.286927 
L 65.767064 212.044804 
L 67.475014 190.727622 
L 69.248763 173.726418 
L 70.827001 150.495192 
L 72.563898 142.538779 
L 74.400352 141.112629 
L 76.117807 115.141696 
L 77.717276 132.705853 
L 79.287151 116.980678 
L 80.903434 109.737339 
L 82.473856 107.147752 
L 84.100916 102.794243 
L 85.811194 91.460107 
L 87.424272 88.307566 
L 89.18906 83.954057 
L 90.807162 87.632021 
L 92.410425 80.876576 
L 94.099864 88.607808 
L 95.58897 72.845102 
L 97.34512 77.911686 
L 98.971119 69.392319 
L 100.571542 77.911686 
L 102.078124 71.268832 
L 103.653012 68.228881 
L 105.218732 68.941956 
L 106.721433 65.789415 
L 108.452402 64.701038 
L 110.198713 66.389899 
L 111.861861 65.151401 
L 113.422384 64.550917 
L 115.072085 65.451643 
L 116.741156 63.46254 
L 118.439377 85.042434 
L 120.031914 57.757941 
L 121.652553 58.99644 
L 123.427522 64.213145 
L 125.122525 61.173194 
L 126.774471 67.590867 
L 128.445251 61.098134 
L 129.973939 58.095714 
L 131.526489 67.816049 
L 133.273171 55.393535 
L 134.927262 57.945593 
L 136.432973 58.058183 
L 137.991289 57.795472 
L 141.119854 56.556973 
L 142.6177 53.704674 
L 144.400265 59.521863 
L 145.814287 55.768838 
L 147.322538 55.768838 
L 148.902198 55.205884 
L 150.39338 55.768838 
L 151.867173 53.779735 
L 153.56314 56.294262 
L 155.045465 61.135664 
L 156.52283 56.481913 
L 158.113919 54.6054 
L 159.652243 55.768838 
L 161.235594 51.340268 
L 163.042403 51.227678 
L 164.647523 55.918959 
L 166.170104 55.431066 
L 167.763127 52.240994 
L 169.21873 55.656247 
L 170.732706 53.929856 
L 172.229377 53.291841 
L 173.818422 51.190147 
L 175.633309 52.353585 
L 177.181422 49.201044 
L 178.734931 52.691357 
L 180.216074 49.839058 
L 181.649765 55.168354 
L 183.239209 51.978283 
L 184.707914 55.431066 
L 186.223821 52.541236 
L 187.751502 51.940752 
L 189.354428 54.717991 
L 190.89033 44.247051 
L 192.459732 43.496446 
L 194.189243 43.421385 
L 195.824151 42.820901 
L 197.516816 43.196204 
L 199.158291 43.008553 
L 200.777213 43.083613 
L 202.368178 42.971022 
L 203.973129 42.67078 
L 205.547085 43.008553 
L 207.089566 42.445599 
L 210.368791 42.63325 
L 211.818929 42.295478 
L 214.928956 42.59572 
L 219.778904 42.257948 
L 221.356288 42.032766 
L 224.390674 42.220417 
L 227.536921 42.220417 
L 229.00378 42.520659 
L 230.650215 42.445599 
L 232.397467 42.182887 
L 233.971526 42.182887 
L 237.21648 41.995236 
L 240.476337 42.145357 
L 241.98871 42.63325 
L 243.439082 42.59572 
L 244.948253 42.070296 
L 246.568385 41.770054 
L 248.159649 42.257948 
L 249.671685 42.032766 
L 252.855384 41.957706 
L 255.955063 41.957706 
L 257.559305 41.694994 
L 260.692849 41.995236 
L 262.26691 41.845115 
L 265.472857 41.957706 
L 266.998767 42.107827 
L 270.117729 41.732524 
L 271.720914 42.070296 
L 274.809141 41.807585 
L 276.270211 42.070296 
L 277.763146 41.920175 
L 279.375704 42.032766 
L 281.006579 41.694994 
L 282.554577 41.544873 
L 287.521244 41.920175 
L 289.093309 41.807585 
L 290.56198 42.032766 
L 292.062967 41.619933 
L 293.675478 41.882645 
L 295.124762 41.807585 
L 296.663664 41.920175 
L 298.170908 41.770054 
L 301.313732 41.845115 
L 302.785055 41.694994 
L 304.401145 41.657464 
L 305.966999 41.995236 
L 307.598302 41.732524 
L 309.291436 41.882645 
L 314.113867 41.732524 
L 315.634843 41.845115 
L 315.634843 41.845115 
" clip-path="url(#p03e5b33ac7)" style="fill: none; stroke: #4c72b0; stroke-width: 1.5; stroke-linecap: round"/>
   </g>
   <g id="line2d_14">
    <path d="M 62.543977 126.926195 
L 64.64466 100.317246 
L 66.81058 83.766405 
L 68.911609 75.847522 
L 71.060586 67.065444 
L 73.154129 64.175614 
L 75.280242 59.709514 
L 77.393495 59.296682 
L 79.4877 60.685301 
L 81.485792 55.506126 
L 83.636287 53.366902 
L 87.776111 53.667144 
L 89.844932 51.040026 
L 91.966333 51.60298 
L 93.996335 51.490389 
L 96.044745 50.514603 
L 98.178939 49.050923 
L 100.271878 49.276105 
L 102.342587 47.737364 
L 104.484 48.000076 
L 106.566301 49.501286 
L 108.646872 48.262788 
L 110.655909 44.847535 
L 112.804135 47.06182 
L 114.889018 45.485549 
L 116.905534 45.222837 
L 118.952456 46.010973 
L 121.018432 46.949229 
L 123.079782 45.6732 
L 125.096261 44.284581 
L 127.218513 48.525499 
L 129.237028 45.035186 
L 131.2624 44.322111 
L 133.2912 43.984339 
L 135.379448 44.359642 
L 137.392901 45.410489 
L 139.401727 46.836638 
L 141.433644 43.233734 
L 143.54113 44.960126 
L 145.565854 45.035186 
L 147.583603 44.734944 
L 149.601955 43.233734 
L 151.626725 42.63325 
L 153.744548 44.0594 
L 155.728554 44.021869 
L 157.735882 43.571506 
L 159.729213 42.63325 
L 161.733117 42.67078 
L 163.744275 42.445599 
L 165.818043 43.533976 
L 167.8344 43.533976 
L 169.845148 44.0594 
L 171.849827 43.909279 
L 173.863964 43.646567 
L 175.905669 43.121143 
L 177.927386 42.032766 
L 180.05435 42.107827 
L 182.081093 40.756737 
L 184.183582 41.807585 
L 186.180275 43.533976 
L 188.213118 41.845115 
L 190.255129 43.046083 
L 192.283414 42.55819 
L 194.280647 41.507342 
L 196.318717 44.09693 
L 198.32503 43.233734 
L 200.344206 43.121143 
L 202.34163 41.16957 
L 204.33863 43.271264 
L 206.351863 40.719207 
L 208.461181 42.182887 
L 210.512968 41.657464 
L 212.509768 41.882645 
L 214.524846 43.458916 
L 216.568256 42.67078 
L 218.589254 41.507342 
L 220.645501 43.421385 
L 222.683485 39.856011 
L 224.769783 40.869328 
L 226.784613 37.454075 
L 228.884295 36.440759 
L 230.968515 36.328168 
L 235.112598 36.403228 
L 237.1379 35.765214 
L 239.252769 36.70347 
L 241.29716 35.952865 
L 243.320411 36.290638 
L 245.363859 36.102986 
L 247.38498 35.652623 
L 249.495125 35.915335 
L 251.510898 36.515819 
L 253.51772 36.440759 
L 255.536744 35.615093 
L 257.653416 35.840275 
L 259.679287 34.902018 
L 261.807463 35.690154 
L 263.842233 36.140517 
L 265.874924 35.014609 
L 269.930862 36.59088 
L 271.962399 36.178047 
L 273.969916 35.540033 
L 275.988985 36.403228 
L 278.049249 36.215577 
L 280.123525 35.802744 
L 282.205176 36.253107 
L 284.212431 35.802744 
L 286.250526 36.215577 
L 288.27406 36.403228 
L 292.294477 36.027926 
L 294.302623 36.403228 
L 296.329953 36.62841 
L 298.354823 36.62841 
L 300.416276 36.328168 
L 302.430452 35.540033 
L 304.459281 35.427442 
L 306.463571 35.915335 
L 308.479404 35.540033 
L 310.47871 35.464972 
L 312.555782 35.540033 
L 316.629808 34.826958 
L 318.760313 35.540033 
L 320.773234 35.502502 
L 322.771273 35.20226 
L 324.775192 35.352381 
L 326.791499 34.902018 
L 328.782533 35.427442 
L 330.833057 35.20226 
L 334.896791 35.08967 
L 336.893046 34.939549 
L 338.922529 35.20226 
L 340.914069 34.977079 
L 342.926555 35.08967 
L 344.914349 35.352381 
L 346.896959 35.20226 
L 350.917266 35.427442 
L 356.897863 34.526716 
L 358.988528 35.20226 
L 362.951188 34.414125 
L 365.040846 34.714367 
L 367.042204 34.789428 
L 369.03149 34.601776 
L 371.083272 34.526716 
L 375.123651 34.864488 
L 377.131667 34.864488 
L 379.155379 34.714367 
L 381.180056 34.714367 
L 383.171311 34.902018 
L 385.176868 35.352381 
L 387.198523 35.014609 
L 387.198523 35.014609 
" clip-path="url(#p03e5b33ac7)" style="fill: none; stroke: #dd8452; stroke-width: 1.5; stroke-linecap: round"/>
   </g>
   <g id="line2d_15">
    <path d="M 62.543977 258.469725 
L 64.418155 214.746983 
L 66.295218 188.062974 
L 68.201816 162.805115 
L 70.111 153.947975 
L 71.96586 131.317234 
L 73.888886 119.945568 
L 75.754586 134.507305 
L 77.532273 100.092065 
L 79.369174 94.012164 
L 81.18722 87.36931 
L 83.0548 81.927423 
L 84.974514 81.51459 
L 86.784243 75.885053 
L 88.66688 80.388683 
L 90.460961 69.54244 
L 92.384502 74.04607 
L 94.098974 75.960113 
L 95.8357 67.515807 
L 97.610425 64.926219 
L 99.412695 61.060603 
L 101.24204 62.937116 
L 102.948022 59.972226 
L 104.755747 60.910482 
L 106.468731 65.902006 
L 108.154001 69.655031 
L 109.864279 60.722831 
L 111.555968 60.159877 
L 113.32355 58.958909 
L 115.144635 60.309998 
L 116.864407 58.771258 
L 118.684121 52.240994 
L 120.470865 57.119927 
L 122.26836 60.722831 
L 124.038877 60.309998 
L 125.781185 59.184091 
L 127.488433 57.007336 
L 129.21813 61.586027 
L 130.975418 55.806368 
L 132.770303 55.581187 
L 134.476493 54.042446 
L 136.190863 51.077557 
L 139.723831 65.714355 
L 141.454914 55.243414 
L 143.239298 53.329372 
L 144.978429 53.892325 
L 146.725494 55.018233 
L 148.489732 52.991599 
L 150.243132 53.742204 
L 151.9606 53.10419 
L 153.693173 57.833002 
L 155.431777 56.219201 
L 157.132683 53.854795 
L 158.863743 52.353585 
L 160.557861 51.903222 
L 162.27483 57.645351 
L 163.974894 57.682881 
L 165.727164 55.205884 
L 167.430544 55.318475 
L 169.145782 56.144141 
L 170.898431 57.682881 
L 172.603462 52.165934 
L 174.360702 59.0715 
L 176.071507 51.302738 
L 177.823102 53.817265 
L 179.524632 50.589663 
L 181.32696 55.318475 
L 183.04868 55.543656 
L 184.767298 54.305158 
L 186.535454 53.854795 
L 188.263126 50.439542 
L 190.12489 49.576347 
L 191.930556 56.406852 
L 193.681682 49.801528 
L 195.420806 54.53034 
L 198.864732 49.839058 
L 200.620475 56.857215 
L 202.310634 52.090873 
L 204.082725 38.767634 
L 205.92363 37.754317 
L 207.761885 37.904438 
L 209.517991 37.228894 
L 211.356307 37.379015 
L 213.137001 36.59088 
L 214.978065 36.59088 
L 216.687352 36.102986 
L 218.574202 36.140517 
L 222.054452 36.853591 
L 223.772951 36.365698 
L 225.533124 36.365698 
L 227.265239 36.515819 
L 228.975866 36.403228 
L 230.699907 35.990396 
L 232.534204 36.065456 
L 234.235316 35.802744 
L 236.059366 36.178047 
L 237.821635 35.314851 
L 239.655862 35.765214 
L 241.369786 35.577563 
L 243.086772 35.502502 
L 244.843291 35.765214 
L 246.576011 36.178047 
L 248.270137 35.464972 
L 253.414585 35.464972 
L 255.11969 35.08967 
L 258.76404 36.065456 
L 260.496044 35.690154 
L 262.21128 34.826958 
L 265.790207 35.540033 
L 267.545169 35.464972 
L 269.270241 35.615093 
L 271.100092 35.239791 
L 272.97012 35.052139 
L 278.307616 34.939549 
L 280.044117 35.16473 
L 281.782639 35.08967 
L 283.567618 35.16473 
L 285.352344 35.08967 
L 287.16828 34.864488 
L 288.943008 35.1272 
L 292.449726 34.977079 
L 294.288083 35.277321 
L 296.062058 34.639307 
L 297.958489 35.014609 
L 299.715377 34.977079 
L 301.457727 35.16473 
L 303.258458 34.789428 
L 305.034486 34.789428 
L 306.830208 35.20226 
L 308.615011 34.864488 
L 312.133798 34.864488 
L 313.853263 35.08967 
L 315.687588 35.16473 
L 317.471078 34.864488 
L 319.278324 35.08967 
L 321.03644 34.977079 
L 322.839607 35.08967 
L 324.647533 34.939549 
L 326.38628 35.08967 
L 328.19845 34.826958 
L 331.852044 34.826958 
L 337.220009 34.789428 
L 339.024052 35.08967 
L 340.831845 34.639307 
L 342.669087 34.939549 
L 344.428312 34.977079 
L 344.428312 34.977079 
" clip-path="url(#p03e5b33ac7)" style="fill: none; stroke: #55a868; stroke-width: 1.5; stroke-linecap: round"/>
   </g>
   <g id="patch_3">
    <path d="M 46.31125 288.430125 
L 46.31125 22.318125 
" style="fill: none; stroke: #cccccc; stroke-width: 1.25; stroke-linejoin: miter; stroke-linecap: square"/>
   </g>
   <g id="patch_4">
    <path d="M 403.43125 288.430125 
L 403.43125 22.318125 
" style="fill: none; stroke: #cccccc; stroke-width: 1.25; stroke-linejoin: miter; stroke-linecap: square"/>
   </g>
   <g id="patch_5">
    <path d="M 46.31125 288.430125 
L 403.43125 288.430125 
" style="fill: none; stroke: #cccccc; stroke-width: 1.25; stroke-linejoin: miter; stroke-linecap: square"/>
   </g>
   <g id="patch_6">
    <path d="M 46.31125 22.318125 
L 403.43125 22.318125 
" style="fill: none; stroke: #cccccc; stroke-width: 1.25; stroke-linejoin: miter; stroke-linecap: square"/>
   </g>
   <g id="text_15">
    <!-- test/accuracy vs wall-clock time -->
    <g style="fill: #262626" transform="translate(128.81125 16.318125) scale(0.12 -0.12)">
     <defs>
      <path id="DejaVuSans-76" d="M 191 3500 
L 800 3500 
L 1894 563 
L 2988 3500 
L 3597 3500 
L 2284 0 
L 1503 0 
L 191 3500 
z
" transform="scale(0.015625)"/>
      <path id="DejaVuSans-77" d="M 269 3500 
L 844 3500 
L 1563 769 
L 2278 3500 
L 2956 3500 
L 3675 769 
L 4391 3500 
L 4966 3500 
L 4050 0 
L 3372 0 
L 2619 2869 
L 1863 0 
L 1184 0 
L 269 3500 
z
" transform="scale(0.015625)"/>
     </defs>
     <use xlink:href="#DejaVuSans-74"/>
     <use xlink:href="#DejaVuSans-65" x="39.208984"/>
     <use xlink:href="#DejaVuSans-73" x="100.732422"/>
     <use xlink:href="#DejaVuSans-74" x="152.832031"/>
     <use xlink:href="#DejaVuSans-2f" x="192.041016"/>
     <use xlink:href="#DejaVuSans-61" x="225.732422"/>
     <use xlink:href="#DejaVuSans-63" x="287.011719"/>
     <use xlink:href="#DejaVuSans-63" x="341.992188"/>
     <use xlink:href="#DejaVuSans-75" x="396.972656"/>
     <use xlink:href="#DejaVuSans-72" x="460.351562"/>
     <use xlink:href="#DejaVuSans-61" x="501.464844"/>
     <use xlink:href="#DejaVuSans-63" x="562.744141"/>
     <use xlink:href="#DejaVuSans-79" x="617.724609"/>
     <use xlink:href="#DejaVuSans-20" x="676.904297"/>
     <use xlink:href="#DejaVuSans-76" x="708.691406"/>
     <use xlink:href="#DejaVuSans-73" x="767.871094"/>
     <use xlink:href="#DejaVuSans-20" x="819.970703"/>
     <use xlink:href="#DejaVuSans-77" x="851.757812"/>
     <use xlink:href="#DejaVuSans-61" x="933.544922"/>
     <use xlink:href="#DejaVuSans-6c" x="994.824219"/>
     <use xlink:href="#DejaVuSans-6c" x="1022.607422"/>
     <use xlink:href="#DejaVuSans-2d" x="1050.390625"/>
     <use xlink:href="#DejaVuSans-63" x="1086.474609"/>
     <use xlink:href="#DejaVuSans-6c" x="1141.455078"/>
     <use xlink:href="#DejaVuSans-6f" x="1169.238281"/>
     <use xlink:href="#DejaVuSans-63" x="1230.419922"/>
     <use xlink:href="#DejaVuSans-6b" x="1285.400391"/>
     <use xlink:href="#DejaVuSans-20" x="1343.310547"/>
     <use xlink:href="#DejaVuSans-74" x="1375.097656"/>
     <use xlink:href="#DejaVuSans-69" x="1414.306641"/>
     <use xlink:href="#DejaVuSans-6d" x="1442.089844"/>
     <use xlink:href="#DejaVuSans-65" x="1539.501953"/>
    </g>
   </g>
   <g id="legend_1">
    <g id="patch_7">
     <path d="M 288.654844 282.930125 
L 395.73125 282.930125 
Q 397.93125 282.930125 397.93125 280.730125 
L 397.93125 233.392312 
Q 397.93125 231.192312 395.73125 231.192312 
L 288.654844 231.192312 
Q 286.454844 231.192312 286.454844 233.392312 
L 286.454844 280.730125 
Q 286.454844 282.930125 288.654844 282.930125 
z
" style="fill: #ffffff; opacity: 0.8; stroke: #cccccc; stroke-linejoin: miter"/>
    </g>
    <g id="line2d_16">
     <path d="M 290.854844 240.100594 
L 301.854844 240.100594 
L 312.854844 240.100594 
" style="fill: none; stroke: #4c72b0; stroke-width: 1.5; stroke-linecap: round"/>
    </g>
    <g id="text_16">
     <!-- SGD512 -->
     <g style="fill: #262626" transform="translate(321.654844 243.950594) scale(0.11 -0.11)">
      <defs>
       <path id="DejaVuSans-53" d="M 3425 4513 
L 3425 3897 
Q 3066 4069 2747 4153 
Q 2428 4238 2131 4238 
Q 1616 4238 1336 4038 
Q 1056 3838 1056 3469 
Q 1056 3159 1242 3001 
Q 1428 2844 1947 2747 
L 2328 2669 
Q 3034 2534 3370 2195 
Q 3706 1856 3706 1288 
Q 3706 609 3251 259 
Q 2797 -91 1919 -91 
Q 1588 -91 1214 -16 
Q 841 59 441 206 
L 441 856 
Q 825 641 1194 531 
Q 1563 422 1919 422 
Q 2459 422 2753 634 
Q 3047 847 3047 1241 
Q 3047 1584 2836 1778 
Q 2625 1972 2144 2069 
L 1759 2144 
Q 1053 2284 737 2584 
Q 422 2884 422 3419 
Q 422 4038 858 4394 
Q 1294 4750 2059 4750 
Q 2388 4750 2728 4690 
Q 3069 4631 3425 4513 
z
" transform="scale(0.015625)"/>
       <path id="DejaVuSans-47" d="M 3809 666 
L 3809 1919 
L 2778 1919 
L 2778 2438 
L 4434 2438 
L 4434 434 
Q 4069 175 3628 42 
Q 3188 -91 2688 -91 
Q 1594 -91 976 548 
Q 359 1188 359 2328 
Q 359 3472 976 4111 
Q 1594 4750 2688 4750 
Q 3144 4750 3555 4637 
Q 3966 4525 4313 4306 
L 4313 3634 
Q 3963 3931 3569 4081 
Q 3175 4231 2741 4231 
Q 1884 4231 1454 3753 
Q 1025 3275 1025 2328 
Q 1025 1384 1454 906 
Q 1884 428 2741 428 
Q 3075 428 3337 486 
Q 3600 544 3809 666 
z
" transform="scale(0.015625)"/>
       <path id="DejaVuSans-44" d="M 1259 4147 
L 1259 519 
L 2022 519 
Q 2988 519 3436 956 
Q 3884 1394 3884 2338 
Q 3884 3275 3436 3711 
Q 2988 4147 2022 4147 
L 1259 4147 
z
M 628 4666 
L 1925 4666 
Q 3281 4666 3915 4102 
Q 4550 3538 4550 2338 
Q 4550 1131 3912 565 
Q 3275 0 1925 0 
L 628 0 
L 628 4666 
z
" transform="scale(0.015625)"/>
      </defs>
      <use xlink:href="#DejaVuSans-53"/>
      <use xlink:href="#DejaVuSans-47" x="63.476562"/>
      <use xlink:href="#DejaVuSans-44" x="140.966797"/>
      <use xlink:href="#DejaVuSans-35" x="217.96875"/>
      <use xlink:href="#DejaVuSans-31" x="281.591797"/>
      <use xlink:href="#DejaVuSans-32" x="345.214844"/>
     </g>
    </g>
    <g id="line2d_17">
     <path d="M 290.854844 256.246531 
L 301.854844 256.246531 
L 312.854844 256.246531 
" style="fill: none; stroke: #dd8452; stroke-width: 1.5; stroke-linecap: round"/>
    </g>
    <g id="text_17">
     <!-- FROG512s64 -->
     <g style="fill: #262626" transform="translate(321.654844 260.096531) scale(0.11 -0.11)">
      <defs>
       <path id="DejaVuSans-46" d="M 628 4666 
L 3309 4666 
L 3309 4134 
L 1259 4134 
L 1259 2759 
L 3109 2759 
L 3109 2228 
L 1259 2228 
L 1259 0 
L 628 0 
L 628 4666 
z
" transform="scale(0.015625)"/>
       <path id="DejaVuSans-52" d="M 2841 2188 
Q 3044 2119 3236 1894 
Q 3428 1669 3622 1275 
L 4263 0 
L 3584 0 
L 2988 1197 
Q 2756 1666 2539 1819 
Q 2322 1972 1947 1972 
L 1259 1972 
L 1259 0 
L 628 0 
L 628 4666 
L 2053 4666 
Q 2853 4666 3247 4331 
Q 3641 3997 3641 3322 
Q 3641 2881 3436 2590 
Q 3231 2300 2841 2188 
z
M 1259 4147 
L 1259 2491 
L 2053 2491 
Q 2509 2491 2742 2702 
Q 2975 2913 2975 3322 
Q 2975 3731 2742 3939 
Q 2509 4147 2053 4147 
L 1259 4147 
z
" transform="scale(0.015625)"/>
       <path id="DejaVuSans-4f" d="M 2522 4238 
Q 1834 4238 1429 3725 
Q 1025 3213 1025 2328 
Q 1025 1447 1429 934 
Q 1834 422 2522 422 
Q 3209 422 3611 934 
Q 4013 1447 4013 2328 
Q 4013 3213 3611 3725 
Q 3209 4238 2522 4238 
z
M 2522 4750 
Q 3503 4750 4090 4092 
Q 4678 3434 4678 2328 
Q 4678 1225 4090 567 
Q 3503 -91 2522 -91 
Q 1538 -91 948 565 
Q 359 1222 359 2328 
Q 359 3434 948 4092 
Q 1538 4750 2522 4750 
z
" transform="scale(0.015625)"/>
      </defs>
      <use xlink:href="#DejaVuSans-46"/>
      <use xlink:href="#DejaVuSans-52" x="57.519531"/>
      <use xlink:href="#DejaVuSans-4f" x="127.001953"/>
      <use xlink:href="#DejaVuSans-47" x="205.712891"/>
      <use xlink:href="#DejaVuSans-35" x="283.203125"/>
      <use xlink:href="#DejaVuSans-31" x="346.826172"/>
      <use xlink:href="#DejaVuSans-32" x="410.449219"/>
      <use xlink:href="#DejaVuSans-73" x="474.072266"/>
      <use xlink:href="#DejaVuSans-36" x="526.171875"/>
      <use xlink:href="#DejaVuSans-34" x="589.794922"/>
     </g>
    </g>
    <g id="line2d_18">
     <path d="M 290.854844 272.392469 
L 301.854844 272.392469 
L 312.854844 272.392469 
" style="fill: none; stroke: #55a868; stroke-width: 1.5; stroke-linecap: round"/>
    </g>
    <g id="text_18">
     <!-- SGD128 -->
     <g style="fill: #262626" transform="translate(321.654844 276.242469) scale(0.11 -0.11)">
      <use xlink:href="#DejaVuSans-53"/>
      <use xlink:href="#DejaVuSans-47" x="63.476562"/>
      <use xlink:href="#DejaVuSans-44" x="140.966797"/>
      <use xlink:href="#DejaVuSans-31" x="217.96875"/>
      <use xlink:href="#DejaVuSans-32" x="281.591797"/>
      <use xlink:href="#DejaVuSans-38" x="345.214844"/>
     </g>
    </g>
   </g>
  </g>
 </g>
 <defs>
  <clipPath id="p03e5b33ac7">
   <rect x="46.31125" y="22.318125" width="357.12" height="266.112"/>
  </clipPath>
 </defs>
</svg>
